<?xml version="1.0" encoding="UTF-8"?>
<!-- Generator: Adobe Illustrator 16.0.0, SVG Export Plug-In . SVG Version: 6.00 Build 0)  -->
<!DOCTYPE svg PUBLIC "-//W3C//DTD SVG 1.1//EN" "http://www.w3.org/Graphics/SVG/1.1/DTD/svg11.dtd">
<svg version="1.1" id="Layer_1" xmlns="http://www.w3.org/2000/svg" xmlns:xlink="http://www.w3.org/1999/xlink" x="0px" y="0px" width="671.967px" height="578.613px" viewBox="0 0 671.967 578.613" enable-background="new 0 0 671.967 578.613" xml:space="preserve">
<line fill="none" stroke="#7AC943" stroke-width="8" stroke-miterlimit="10" x1="598.387" y1="499.898" x2="598.387" y2="539.898"/>
<line fill="none" stroke="#3FA9F5" stroke-width="8" stroke-miterlimit="10" x1="628.387" y1="499.898" x2="628.387" y2="539.898"/>
<circle fill="#FFFFFF" stroke="#000000" stroke-width="3" stroke-miterlimit="10" cx="51.636" cy="91.701" r="28.441"/>
<circle fill="#FFFFFF" stroke="#000000" stroke-width="3" stroke-miterlimit="10" cx="165.437" cy="91.701" r="28.442"/>
<circle fill="#FFFFFF" stroke="#000000" stroke-width="3" stroke-miterlimit="10" cx="108.536" cy="91.701" r="28.442"/>
<circle fill="#FFFFFF" stroke="#000000" stroke-width="3" stroke-miterlimit="10" cx="222.337" cy="91.701" r="28.441"/>
<circle fill="#FFFFFF" stroke="#000000" stroke-width="3" stroke-miterlimit="10" cx="336.138" cy="91.701" r="28.442"/>
<circle fill="#FFFFFF" stroke="#000000" stroke-width="3" stroke-miterlimit="10" cx="279.238" cy="91.701" r="28.441"/>
<circle fill="#FFFFFF" stroke="#000000" stroke-width="3" stroke-miterlimit="10" cx="393.039" cy="91.701" r="28.442"/>
<circle fill="#FFFFFF" stroke="#000000" stroke-width="3" stroke-miterlimit="10" cx="506.839" cy="91.701" r="28.442"/>
<circle fill="#FFFFFF" stroke="#000000" stroke-width="3" stroke-miterlimit="10" cx="449.939" cy="91.701" r="28.442"/>
<circle fill="#FFFFFF" stroke="#000000" stroke-width="3" stroke-miterlimit="10" cx="563.74" cy="91.701" r="28.442"/>
<circle fill="#FFFFFF" stroke="#000000" stroke-width="3" stroke-miterlimit="10" cx="620.64" cy="91.701" r="28.442"/>
<circle fill="#FFFFFF" stroke="#000000" stroke-width="3" stroke-miterlimit="10" cx="51.636" cy="148.601" r="28.441"/>
<circle fill="#FFFFFF" stroke="#000000" stroke-width="3" stroke-miterlimit="10" cx="165.437" cy="148.601" r="28.442"/>
<circle fill="#FFFFFF" stroke="#000000" stroke-width="3" stroke-miterlimit="10" cx="108.536" cy="148.601" r="28.442"/>
<circle fill="#FFFFFF" stroke="#000000" stroke-width="3" stroke-miterlimit="10" cx="222.337" cy="148.601" r="28.442"/>
<g>
	<path fill="#3FA9F5" d="M48.754,72.009h5.674l13.466,37.104h-5.506L58.515,98H43.958l-4.024,11.113h-5.153L48.754,72.009z    M57.088,93.908l-5.712-16.392L45.44,93.908H57.088z"/>
</g>
<g>
	<path fill="#3FA9F5" d="M332.962,72.009h5.674l13.467,37.104h-5.506L342.722,98h-14.557l-4.024,11.113h-5.153L332.962,72.009z    M341.297,93.907l-5.712-16.392l-5.936,16.392H341.297z"/>
</g>
<g>
	<path fill="#3FA9F5" d="M504.499,72.009h5.674l13.467,37.104h-5.506L514.26,98h-14.557l-4.023,11.113h-5.149L504.499,72.009z    M512.834,93.907l-5.713-16.392l-5.938,16.392H512.834z"/>
</g>
<g>
	<path fill="#FF1D25" d="M180.187,72.871v4.42h-12.503v32.684h-5.077V77.291h-12.502v-4.42H180.187z"/>
</g>
<g>
	<path fill="#FF1D25" d="M408.393,72.871v4.42H395.89v32.684h-5.076V77.291h-12.502v-4.42H408.393z"/>
</g>
<g>
	<path fill="#FF1D25" d="M66.625,131.869v4.42H54.123v32.684h-5.077v-32.684H36.543v-4.42H66.625z"/>
</g>
<g>
	<path fill="#3FA9F5" d="M164.039,129.203h5.674l13.466,37.104h-5.506l-3.874-11.113h-14.557l-4.024,11.113h-5.153L164.039,129.203z    M172.374,151.102l-5.712-16.392l-5.936,16.392H172.374z"/>
</g>
<g>
	<path fill="#FF1D25" d="M635.948,72.71v4.42h-12.502v32.684h-5.077V77.13h-12.502v-4.42H635.948z"/>
</g>
<g>
	<path fill="#7AC943" d="M119.149,74.711c2.563,2.475,3.986,5.288,4.269,8.436h-4.9c-0.545-2.391-1.633-4.285-3.262-5.683   c-1.629-1.397-3.915-2.096-6.858-2.096c-3.589,0-6.487,1.285-8.694,3.855c-2.208,2.57-3.311,6.509-3.311,11.818   c0,4.348,0.997,7.875,2.99,10.579c1.993,2.705,4.966,4.057,8.919,4.057c3.639,0,6.41-1.423,8.312-4.269   c1.008-1.499,1.761-3.469,2.258-5.91h4.9c-0.433,3.907-1.864,7.182-4.294,9.825c-2.913,3.183-6.841,4.773-11.785,4.773   c-4.261,0-7.84-1.305-10.735-3.917c-3.812-3.454-5.718-8.787-5.718-15.999c0-5.476,1.431-9.966,4.294-13.471   c3.095-3.808,7.364-5.712,12.807-5.712C112.983,70.999,116.586,72.236,119.149,74.711z"/>
</g>
<g>
	<path fill="#7AC943" d="M460.25,75.573c2.562,2.475,3.987,5.288,4.268,8.436h-4.896c-0.545-2.391-1.633-4.285-3.262-5.683   c-1.631-1.397-3.915-2.096-6.858-2.096c-3.589,0-6.487,1.285-8.694,3.855c-2.208,2.57-3.311,6.509-3.311,11.818   c0,4.348,0.997,7.875,2.99,10.579c1.99,2.705,4.966,4.057,8.919,4.057c3.639,0,6.407-1.423,8.312-4.269   c1.008-1.499,1.762-3.469,2.258-5.91h4.899c-0.432,3.907-1.863,7.182-4.293,9.825c-2.913,3.183-6.841,4.773-11.785,4.773   c-4.261,0-7.84-1.305-10.735-3.917c-3.812-3.454-5.718-8.787-5.718-15.999c0-5.476,1.434-9.966,4.294-13.471   c3.098-3.808,7.364-5.712,12.81-5.712C454.083,71.86,457.688,73.098,460.25,75.573z"/>
</g>
<g>
	<path fill="#7AC943" d="M290.49,74.711c2.562,2.475,3.986,5.288,4.269,8.436h-4.9c-0.545-2.391-1.633-4.285-3.262-5.683   c-1.629-1.397-3.915-2.096-6.858-2.096c-3.589,0-6.487,1.285-8.694,3.855c-2.208,2.57-3.311,6.509-3.311,11.818   c0,4.348,0.997,7.875,2.99,10.579c1.993,2.705,4.966,4.057,8.919,4.057c3.639,0,6.41-1.423,8.312-4.269   c1.008-1.499,1.761-3.469,2.258-5.91h4.9c-0.433,3.907-1.864,7.182-4.294,9.825c-2.913,3.183-6.841,4.773-11.785,4.773   c-4.261,0-7.84-1.305-10.735-3.917c-3.812-3.454-5.718-8.787-5.718-15.999c0-5.476,1.431-9.966,4.294-13.471   c3.095-3.808,7.364-5.712,12.807-5.712C284.324,70.999,287.927,72.236,290.49,74.711z"/>
</g>
<g>
	<path fill="#FF931E" d="M117.605,130.264c3.634,1.937,5.858,5.329,6.671,10.179H119.3c-0.594-2.711-1.822-4.686-3.686-5.923   c-1.864-1.238-4.213-1.856-7.049-1.856c-3.364,0-6.197,1.288-8.497,3.864c-2.3,2.576-3.451,6.416-3.451,11.518   c0,4.412,0.949,8.002,2.847,10.772s4.992,4.155,9.282,4.155c3.284,0,6.002-0.973,8.156-2.917c2.154-1.944,3.256-5.089,3.306-9.434   h-11.619v-4.167h16.292v19.853h-3.233l-1.212-4.774c-1.673,1.869-3.156,3.166-4.447,3.89c-2.17,1.246-4.928,1.869-8.274,1.869   c-4.324,0-8.042-1.422-11.156-4.269c-3.396-3.569-5.093-8.469-5.093-14.7c0-6.213,1.66-11.155,4.979-14.826   c3.153-3.502,7.236-5.254,12.248-5.254C112.128,128.243,115.099,128.917,117.605,130.264z"/>
</g>
<g>
	<path fill="#FF931E" d="M231.228,73.932c3.634,1.937,5.858,5.329,6.671,10.179h-4.976c-0.594-2.711-1.822-4.686-3.686-5.923   c-1.864-1.238-4.213-1.856-7.049-1.856c-3.364,0-6.197,1.288-8.497,3.864c-2.3,2.576-3.451,6.416-3.451,11.518   c0,4.412,0.949,8.002,2.847,10.772s4.992,4.155,9.282,4.155c3.284,0,6.002-0.973,8.156-2.917c2.154-1.944,3.256-5.089,3.306-9.434   h-11.619v-4.167h16.292v19.853h-3.233l-1.212-4.774c-1.673,1.869-3.156,3.166-4.447,3.89c-2.17,1.246-4.928,1.869-8.274,1.869   c-4.324,0-8.042-1.422-11.156-4.269c-3.396-3.569-5.093-8.469-5.093-14.7c0-6.213,1.66-11.155,4.979-14.826   c3.153-3.502,7.236-5.254,12.248-5.254C225.751,71.911,228.722,72.584,231.228,73.932z"/>
</g>
<g>
	<path fill="#7AC943" d="M232.772,131.906c2.563,2.475,3.986,5.288,4.269,8.436h-4.9c-0.545-2.391-1.633-4.285-3.262-5.683   c-1.629-1.397-3.915-2.096-6.858-2.096c-3.589,0-6.487,1.285-8.694,3.855c-2.208,2.57-3.311,6.509-3.311,11.818   c0,4.348,0.997,7.875,2.99,10.579c1.993,2.705,4.966,4.057,8.919,4.057c3.639,0,6.41-1.423,8.312-4.269   c1.008-1.499,1.761-3.469,2.258-5.91h4.9c-0.433,3.907-1.864,7.182-4.294,9.825c-2.913,3.183-6.841,4.773-11.785,4.773   c-4.261,0-7.84-1.305-10.735-3.917c-3.812-3.454-5.718-8.787-5.718-15.999c0-5.476,1.431-9.966,4.294-13.471   c3.095-3.808,7.364-5.712,12.807-5.712C226.606,128.193,230.209,129.431,232.772,131.906z"/>
</g>
<g>
	<path fill="#7AC943" d="M574.681,74.711c2.562,2.475,3.986,5.288,4.271,8.436h-4.899c-0.546-2.391-1.634-4.285-3.262-5.683   c-1.63-1.397-3.916-2.096-6.859-2.096c-3.588,0-6.483,1.285-8.69,3.855c-2.208,2.57-3.312,6.509-3.312,11.818   c0,4.348,0.996,7.875,2.99,10.579c1.992,2.705,4.966,4.057,8.919,4.057c3.641,0,6.41-1.423,8.312-4.269   c1.009-1.499,1.761-3.469,2.258-5.91h4.896c-0.433,3.907-1.861,7.182-4.294,9.825c-2.913,3.183-6.841,4.773-11.784,4.773   c-4.262,0-7.84-1.305-10.733-3.917c-3.812-3.454-5.718-8.787-5.718-15.999c0-5.476,1.432-9.966,4.295-13.471   c3.095-3.808,7.361-5.712,12.806-5.712C568.515,70.999,572.118,72.236,574.681,74.711z"/>
</g>
<circle fill="#FFFFFF" stroke="#000000" stroke-width="3" stroke-miterlimit="10" cx="348.208" cy="224.468" r="28.441"/>
<g>
	<path fill="#FF931E" d="M357.099,206.699c3.635,1.937,5.858,5.329,6.672,10.179h-4.977c-0.594-2.711-1.822-4.686-3.686-5.923   c-1.864-1.238-4.213-1.856-7.049-1.856c-3.365,0-6.197,1.288-8.498,3.864c-2.302,2.576-3.453,6.416-3.453,11.518   c0,4.412,0.951,8.002,2.847,10.772s4.992,4.155,9.279,4.155c3.285,0,6.005-0.973,8.156-2.917c2.154-1.944,3.256-5.089,3.309-9.434   h-11.619v-4.167h16.292v19.853h-3.231l-1.211-4.773c-1.676,1.869-3.156,3.166-4.447,3.89c-2.17,1.246-4.928,1.869-8.274,1.869   c-4.323,0-8.042-1.423-11.156-4.269c-3.396-3.57-5.093-8.47-5.093-14.7c0-6.213,1.66-11.155,4.979-14.826   c3.154-3.502,7.236-5.254,12.248-5.254C351.622,204.678,354.593,205.352,357.099,206.699z"/>
</g>
<line fill="none" stroke="#000000" stroke-width="2" stroke-miterlimit="10" x1="376.388" y1="224.898" x2="399.387" y2="224.898"/>
<circle fill="#FF931E" stroke="#000000" stroke-width="2" stroke-miterlimit="10" cx="408.083" cy="224.857" r="10.725"/>
<circle fill="#FFFFFF" stroke="#000000" stroke-width="3" stroke-miterlimit="10" cx="206.819" cy="272.748" r="28.441"/>
<g>
	<path fill="#3FA9F5" d="M205.288,251.332h5.674l13.466,37.104h-5.506l-3.874-11.113h-14.557l-4.024,11.113h-5.153L205.288,251.332z    M213.622,273.23l-5.712-16.393l-5.936,16.393H213.622z"/>
</g>
<line fill="none" stroke="#000000" stroke-width="2" stroke-miterlimit="10" x1="219.572" y1="246.287" x2="234.676" y2="228.575"/>
<circle fill="#3FA9F5" stroke="#000000" stroke-width="2" stroke-miterlimit="10" cx="239.771" cy="222.131" r="10.725"/>
<circle fill="#FFFFFF" stroke="#000000" stroke-width="3" stroke-miterlimit="10" cx="394.763" cy="289.99" r="28.442"/>
<g>
	<path fill="#FF1D25" d="M409.255,272.68v4.42h-12.503v32.684h-5.077V277.1h-12.502v-4.42H409.255z"/>
</g>
<line fill="none" stroke="#000000" stroke-width="2" stroke-miterlimit="10" x1="367.621" y1="291.545" x2="344.347" y2="291.167"/>
<circle fill="#FF1D25" stroke="#000000" stroke-width="2" stroke-miterlimit="10" cx="336.133" cy="291.335" r="10.724"/>
<circle fill="#FFFFFF" stroke="#000000" stroke-width="3" stroke-miterlimit="10" cx="473.216" cy="213.261" r="28.442"/>
<g>
	<path fill="#7AC943" d="M483.651,196.565c2.562,2.475,3.983,5.288,4.269,8.436h-4.898c-0.547-2.391-1.635-4.285-3.263-5.683   c-1.63-1.397-3.916-2.096-6.856-2.096c-3.59,0-6.486,1.285-8.693,3.855c-2.208,2.57-3.312,6.509-3.312,11.818   c0,4.348,0.995,7.875,2.989,10.579c1.992,2.705,4.966,4.057,8.919,4.057c3.643,0,6.41-1.423,8.312-4.269   c1.009-1.499,1.761-3.469,2.258-5.91h4.899c-0.436,3.907-1.864,7.182-4.296,9.825c-2.911,3.183-6.842,4.773-11.782,4.773   c-4.265,0-7.841-1.305-10.736-3.917c-3.811-3.454-5.717-8.787-5.717-15.999c0-5.476,1.431-9.966,4.294-13.471   c3.095-3.808,7.365-5.712,12.806-5.712C477.485,192.853,481.089,194.09,483.651,196.565z"/>
</g>
<line fill="none" stroke="#000000" stroke-width="2" stroke-miterlimit="10" x1="485.112" y1="239.506" x2="501.619" y2="255.917"/>
<circle fill="#7AC943" stroke="#000000" stroke-width="2" stroke-miterlimit="10" cx="507.657" cy="261.489" r="10.725"/>
<g>
	<g>
		<path fill="none" stroke="#000000" stroke-width="2" stroke-miterlimit="10" d="M276.066,178.733    c4.157,26.146,21.586,45.735,42.488,45.735"/>
		<g>
			<path d="M275.124,166.697c-1.598,5.844-4.557,13.181-7.965,17.868l9.171-4.267l9.776,2.587     C281.927,178.871,277.723,172.169,275.124,166.697z"/>
		</g>
	</g>
</g>
<g>
	<rect x="26.465" y="14.208" fill="none" width="380.409" height="27.108"/>
	<path d="M30.799,29.339c0.068,1.263,0.355,2.288,0.861,3.076c0.963,1.475,2.662,2.212,5.095,2.212c1.09,0,2.083-0.161,2.979-0.485   c1.732-0.626,2.598-1.748,2.598-3.364c0-1.212-0.367-2.076-1.101-2.591c-0.744-0.505-1.908-0.945-3.494-1.318l-2.921-0.682   c-1.909-0.444-3.259-0.935-4.052-1.47c-1.371-0.929-2.056-2.318-2.056-4.167c0-2,0.674-3.642,2.021-4.925s3.254-1.925,5.722-1.925   c2.271,0,4.2,0.563,5.788,1.689c1.588,1.127,2.382,2.928,2.382,5.403h-2.834c-0.146-1.192-0.456-2.106-0.93-2.743   c-0.882-1.162-2.378-1.743-4.49-1.743c-1.705,0-2.93,0.374-3.676,1.122c-0.746,0.748-1.119,1.617-1.119,2.606   c0,1.091,0.44,1.89,1.322,2.395c0.578,0.323,1.884,0.728,3.92,1.212l3.025,0.712c1.458,0.343,2.584,0.813,3.377,1.409   c1.371,1.041,2.056,2.551,2.056,4.531c0,2.465-0.874,4.228-2.623,5.289s-3.781,1.591-6.097,1.591c-2.7,0-4.813-0.707-6.34-2.122   c-1.528-1.404-2.276-3.309-2.246-5.713L30.799,29.339L30.799,29.339z"/>
	<path d="M59.192,20.739c1.074,0.541,1.893,1.241,2.455,2.099c0.542,0.818,0.904,1.773,1.085,2.864   c0.16,0.748,0.241,1.94,0.241,3.576H51.167c0.05,1.652,0.436,2.977,1.158,3.974c0.722,0.998,1.839,1.497,3.353,1.497   c1.414,0,2.541-0.472,3.383-1.416c0.471-0.548,0.805-1.182,1.001-1.903h2.683c-0.071,0.596-0.306,1.26-0.705,1.993   c-0.399,0.732-0.844,1.331-1.335,1.796c-0.822,0.808-1.84,1.354-3.053,1.637c-0.652,0.162-1.389,0.242-2.211,0.242   c-2.008,0-3.709-0.735-5.105-2.205s-2.093-3.529-2.093-6.176c0-2.606,0.703-4.723,2.108-6.35c1.405-1.627,3.243-2.44,5.513-2.44   C57.008,19.928,58.117,20.199,59.192,20.739z M60.168,27.111c-0.11-1.182-0.366-2.126-0.766-2.834   c-0.742-1.313-1.979-1.97-3.712-1.97c-1.242,0-2.284,0.452-3.125,1.356c-0.842,0.904-1.288,2.054-1.337,3.448H60.168z"/>
	<path d="M75.583,20.943c0.504,0.364,0.989,0.899,1.453,1.606v-2.258h2.577v22.702h-2.728v-8.335   c-0.454,0.728-1.082,1.306-1.884,1.735c-0.802,0.429-1.804,0.644-3.004,0.644c-1.725,0-3.269-0.677-4.631-2.031   c-1.362-1.354-2.043-3.415-2.043-6.183c0-2.596,0.638-4.728,1.915-6.396c1.277-1.667,2.929-2.5,4.957-2.5   C73.535,19.928,74.665,20.267,75.583,20.943z M68.761,32.158c0.695,1.688,1.941,2.531,3.736,2.531c1.896,0,3.202-0.889,3.918-2.667   c0.393-0.98,0.59-2.232,0.59-3.758c0-1.404-0.217-2.576-0.65-3.516c-0.736-1.606-2.032-2.41-3.888-2.41   c-1.18,0-2.191,0.513-3.033,1.538c-0.842,1.025-1.263,2.609-1.263,4.751C68.17,30.031,68.367,31.208,68.761,32.158z"/>
	<path d="M86.417,20.292v10.775c0,0.829,0.128,1.505,0.384,2.031c0.472,0.97,1.353,1.455,2.642,1.455   c1.85,0,3.109-0.849,3.778-2.546c0.364-0.909,0.546-2.157,0.546-3.743v-7.971h2.728v16.23h-2.576l0.03-2.395   c-0.348,0.617-0.779,1.137-1.294,1.561c-1.021,0.849-2.26,1.273-3.717,1.273c-2.271,0-3.817-0.773-4.64-2.319   c-0.446-0.828-0.669-1.935-0.669-3.319V20.292H86.417z"/>
	<path d="M110.976,20.739c1.074,0.541,1.893,1.241,2.455,2.099c0.542,0.818,0.904,1.773,1.085,2.864   c0.16,0.748,0.241,1.94,0.241,3.576h-11.805c0.05,1.652,0.436,2.977,1.158,3.974c0.722,0.998,1.839,1.497,3.353,1.497   c1.414,0,2.541-0.472,3.383-1.416c0.471-0.548,0.805-1.182,1.001-1.903h2.683c-0.071,0.596-0.306,1.26-0.705,1.993   c-0.399,0.732-0.844,1.331-1.335,1.796c-0.822,0.808-1.84,1.354-3.053,1.637c-0.652,0.162-1.389,0.242-2.211,0.242   c-2.008,0-3.709-0.735-5.105-2.205s-2.093-3.529-2.093-6.176c0-2.606,0.703-4.723,2.108-6.35c1.405-1.627,3.243-2.44,5.513-2.44   C108.792,19.928,109.901,20.199,110.976,20.739z M111.952,27.111c-0.11-1.182-0.366-2.126-0.766-2.834   c-0.742-1.313-1.979-1.97-3.712-1.97c-1.242,0-2.284,0.452-3.125,1.356c-0.842,0.904-1.288,2.054-1.337,3.448H111.952z"/>
	<path d="M118.211,20.292h2.591v2.303c0.768-0.949,1.581-1.631,2.44-2.046c0.858-0.414,1.813-0.621,2.864-0.621   c2.303,0,3.859,0.803,4.667,2.41c0.444,0.879,0.667,2.137,0.667,3.773v10.411h-2.773V26.293c0-0.99-0.146-1.788-0.439-2.394   c-0.485-1.01-1.364-1.516-2.637-1.516c-0.647,0-1.177,0.066-1.591,0.197c-0.748,0.223-1.404,0.667-1.97,1.334   c-0.455,0.535-0.75,1.088-0.887,1.659c-0.136,0.571-0.205,1.387-0.205,2.447v8.502h-2.728L118.211,20.292L118.211,20.292z"/>
	<path d="M146.194,21.156c1.146,0.889,1.836,2.42,2.069,4.592h-2.652c-0.162-1-0.53-1.831-1.106-2.493   c-0.576-0.661-1.5-0.992-2.773-0.992c-1.738,0-2.98,0.848-3.728,2.542c-0.485,1.1-0.728,2.458-0.728,4.072   c0,1.625,0.343,2.992,1.031,4.102c0.687,1.11,1.768,1.665,3.243,1.665c1.131,0,2.028-0.344,2.69-1.034   c0.661-0.689,1.119-1.633,1.371-2.831h2.652c-0.303,2.152-1.061,3.726-2.273,4.721c-1.212,0.995-2.763,1.493-4.652,1.493   c-2.122,0-3.814-0.775-5.077-2.326c-1.263-1.551-1.895-3.488-1.895-5.812c0-2.849,0.692-5.066,2.076-6.653   c1.384-1.586,3.147-2.379,5.289-2.379C143.56,19.822,145.048,20.267,146.194,21.156z"/>
	<path d="M150.991,14.26h2.773v3.092h-2.773V14.26z M150.991,20.368h2.773v16.155h-2.773V20.368z"/>
	<path d="M157.886,20.292h2.591v2.303c0.768-0.949,1.581-1.631,2.44-2.046c0.858-0.414,1.813-0.621,2.864-0.621   c2.303,0,3.859,0.803,4.667,2.41c0.444,0.879,0.667,2.137,0.667,3.773v10.411h-2.773V26.293c0-0.99-0.146-1.788-0.439-2.394   c-0.485-1.01-1.364-1.516-2.637-1.516c-0.647,0-1.177,0.066-1.591,0.197c-0.748,0.223-1.404,0.667-1.97,1.334   c-0.455,0.535-0.75,1.088-0.887,1.659c-0.136,0.571-0.205,1.387-0.205,2.447v8.502h-2.728L157.886,20.292L157.886,20.292z"/>
	<path d="M184.17,20.943c0.513,0.354,1.037,0.869,1.57,1.546v-2.046h2.516v14.761c0,2.061-0.302,3.688-0.906,4.88   c-1.128,2.202-3.258,3.304-6.389,3.304c-1.742,0-3.207-0.392-4.395-1.175c-1.188-0.783-1.853-2.008-1.995-3.675h2.773   c0.13,0.728,0.392,1.288,0.784,1.682c0.613,0.606,1.578,0.909,2.894,0.909c2.08,0,3.441-0.737,4.084-2.212   c0.382-0.869,0.558-2.419,0.527-4.652c-0.543,0.828-1.197,1.445-1.962,1.849c-0.765,0.404-1.776,0.606-3.034,0.606   c-1.751,0-3.283-0.624-4.596-1.872s-1.97-3.311-1.97-6.19c0-2.718,0.662-4.839,1.985-6.365c1.323-1.525,2.921-2.289,4.792-2.289   C182.117,20.004,183.224,20.317,184.17,20.943z M184.504,23.868c-0.825-0.97-1.875-1.455-3.151-1.455   c-1.91,0-3.217,0.899-3.92,2.697c-0.372,0.96-0.558,2.218-0.558,3.774c0,1.829,0.37,3.22,1.108,4.175   c0.738,0.955,1.731,1.432,2.978,1.432c1.95,0,3.322-0.884,4.116-2.652c0.442-1,0.663-2.167,0.663-3.501   C185.74,26.329,185.328,24.838,184.504,23.868z"/>
	<path d="M200.804,14.185h2.652v8.078c0.598-0.778,1.313-1.372,2.145-1.781c0.832-0.409,1.734-0.614,2.708-0.614   c2.028,0,3.674,0.695,4.937,2.083c1.263,1.389,1.894,3.438,1.894,6.146c0,2.566-0.624,4.698-1.872,6.395   c-1.247,1.697-2.977,2.546-5.188,2.546c-1.237,0-2.282-0.298-3.134-0.894c-0.507-0.354-1.05-0.919-1.628-1.697v2.076h-2.516V14.185   H200.804z M211.234,32.87c0.735-1.172,1.103-2.718,1.103-4.637c0-1.707-0.367-3.122-1.103-4.243   c-0.735-1.122-1.817-1.682-3.246-1.682c-1.247,0-2.339,0.459-3.277,1.379s-1.407,2.435-1.407,4.546   c0,1.525,0.193,2.763,0.578,3.713c0.719,1.788,2.062,2.682,4.029,2.682C209.392,34.628,210.5,34.042,211.234,32.87z"/>
	<path d="M228.439,20.292h3.016c-0.384,1.041-1.238,3.417-2.561,7.126c-0.99,2.79-1.818,5.064-2.485,6.823   c-1.575,4.139-2.685,6.663-3.331,7.572c-0.646,0.908-1.756,1.363-3.331,1.363c-0.383,0-0.679-0.015-0.886-0.045   c-0.207-0.03-0.462-0.086-0.765-0.167v-2.485c0.474,0.131,0.817,0.212,1.029,0.242c0.212,0.03,0.398,0.045,0.56,0.045   c0.504,0,0.875-0.083,1.112-0.25c0.237-0.167,0.436-0.371,0.598-0.612c0.05-0.081,0.232-0.495,0.544-1.24   c0.312-0.747,0.54-1.301,0.681-1.664l-6.001-16.708h3.092l4.349,13.221L228.439,20.292z"/>
	<path d="M244.768,29.339c0.068,1.263,0.355,2.288,0.861,3.076c0.963,1.475,2.662,2.212,5.095,2.212c1.09,0,2.083-0.161,2.979-0.485   c1.732-0.626,2.598-1.748,2.598-3.364c0-1.212-0.367-2.076-1.101-2.591c-0.744-0.505-1.908-0.945-3.494-1.318l-2.921-0.682   c-1.909-0.444-3.259-0.935-4.052-1.47c-1.371-0.929-2.056-2.318-2.056-4.167c0-2,0.674-3.642,2.021-4.925   c1.347-1.283,3.254-1.925,5.722-1.925c2.271,0,4.2,0.563,5.788,1.689c1.588,1.127,2.382,2.928,2.382,5.403h-2.834   c-0.146-1.192-0.456-2.106-0.93-2.743c-0.882-1.162-2.378-1.743-4.49-1.743c-1.705,0-2.93,0.374-3.676,1.122   c-0.746,0.748-1.119,1.617-1.119,2.606c0,1.091,0.44,1.89,1.322,2.395c0.578,0.323,1.884,0.728,3.92,1.212l3.025,0.712   c1.458,0.343,2.584,0.813,3.377,1.409c1.371,1.041,2.056,2.551,2.056,4.531c0,2.465-0.874,4.228-2.623,5.289   s-3.781,1.591-6.097,1.591c-2.7,0-4.813-0.707-6.34-2.122c-1.528-1.404-2.276-3.309-2.246-5.713L244.768,29.339L244.768,29.339z"/>
	<path d="M273.281,20.292h3.016c-0.384,1.041-1.238,3.417-2.561,7.126c-0.99,2.79-1.818,5.064-2.485,6.823   c-1.575,4.139-2.685,6.663-3.331,7.572c-0.646,0.908-1.756,1.363-3.331,1.363c-0.383,0-0.679-0.015-0.886-0.045   c-0.207-0.03-0.462-0.086-0.765-0.167v-2.485c0.474,0.131,0.817,0.212,1.029,0.242c0.212,0.03,0.398,0.045,0.56,0.045   c0.504,0,0.875-0.083,1.112-0.25c0.237-0.167,0.436-0.371,0.598-0.612c0.05-0.081,0.232-0.495,0.544-1.24   c0.312-0.747,0.54-1.301,0.681-1.664l-6.001-16.708h3.092l4.349,13.221L273.281,20.292z"/>
	<path d="M278.653,20.292h2.591v2.303c0.768-0.949,1.581-1.631,2.44-2.046c0.858-0.414,1.813-0.621,2.864-0.621   c2.303,0,3.859,0.803,4.667,2.41c0.444,0.879,0.667,2.137,0.667,3.773v10.411h-2.773V26.293c0-0.99-0.146-1.788-0.439-2.394   c-0.485-1.01-1.364-1.516-2.637-1.516c-0.647,0-1.177,0.066-1.591,0.197c-0.748,0.223-1.404,0.667-1.97,1.334   c-0.455,0.535-0.75,1.088-0.887,1.659c-0.136,0.571-0.205,1.387-0.205,2.447v8.502h-2.728L278.653,20.292L278.653,20.292z"/>
	<path d="M296.46,15.761h2.758v4.531h2.591v2.228h-2.591v10.593c0,0.566,0.192,0.945,0.576,1.137   c0.212,0.111,0.566,0.167,1.061,0.167c0.131,0,0.272-0.003,0.424-0.01c0.151-0.007,0.328-0.024,0.53-0.051v2.167   c-0.313,0.091-0.639,0.157-0.978,0.197c-0.338,0.041-0.705,0.062-1.099,0.062c-1.273,0-2.137-0.326-2.591-0.979   c-0.455-0.652-0.682-1.498-0.682-2.539V22.52h-2.197v-2.228h2.197L296.46,15.761L296.46,15.761z"/>
	<path d="M304.538,14.185h2.728v8.305c0.646-0.818,1.228-1.394,1.743-1.728c0.879-0.576,1.975-0.864,3.289-0.864   c2.354,0,3.95,0.823,4.789,2.47c0.455,0.899,0.682,2.147,0.682,3.743v10.411h-2.804V26.293c0-1.192-0.151-2.066-0.455-2.622   c-0.495-0.889-1.425-1.333-2.789-1.333c-1.131,0-2.157,0.389-3.076,1.167c-0.919,0.778-1.379,2.248-1.379,4.41v8.608h-2.728V14.185   L304.538,14.185z"/>
	<path d="M331.824,20.739c1.074,0.541,1.893,1.241,2.455,2.099c0.542,0.818,0.904,1.773,1.085,2.864   c0.16,0.748,0.241,1.94,0.241,3.576H323.8c0.05,1.652,0.436,2.977,1.158,3.974c0.722,0.998,1.839,1.497,3.353,1.497   c1.414,0,2.541-0.472,3.383-1.416c0.471-0.548,0.805-1.182,1.001-1.903h2.683c-0.071,0.596-0.306,1.26-0.705,1.993   c-0.399,0.732-0.844,1.331-1.335,1.796c-0.822,0.808-1.84,1.354-3.053,1.637c-0.652,0.162-1.389,0.242-2.211,0.242   c-2.008,0-3.709-0.735-5.105-2.205c-1.396-1.47-2.093-3.529-2.093-6.176c0-2.606,0.703-4.723,2.108-6.35   c1.405-1.627,3.243-2.44,5.513-2.44C329.64,19.928,330.75,20.199,331.824,20.739z M332.801,27.111   c-0.11-1.182-0.366-2.126-0.766-2.834c-0.742-1.313-1.979-1.97-3.712-1.97c-1.242,0-2.284,0.452-3.125,1.356   c-0.842,0.904-1.288,2.054-1.337,3.448H332.801z"/>
	<path d="M340.683,31.431c0.082,0.909,0.313,1.606,0.695,2.091c0.701,0.879,1.918,1.318,3.65,1.318c1.031,0,1.938-0.22,2.722-0.659   s1.176-1.119,1.176-2.039c0-0.697-0.313-1.228-0.94-1.591c-0.397-0.222-1.188-0.48-2.369-0.773l-2.202-0.546   c-1.407-0.343-2.444-0.727-3.11-1.151c-1.189-0.738-1.785-1.758-1.785-3.062c0-1.536,0.561-2.778,1.682-3.728   c1.121-0.949,2.629-1.424,4.523-1.424c2.479,0,4.264,0.717,5.357,2.152c0.688,0.909,1.021,1.889,0.999,2.94h-2.576   c-0.052-0.613-0.272-1.17-0.667-1.673c-0.645-0.713-1.753-1.07-3.335-1.07c-1.058,0-1.854,0.196-2.396,0.589   c-0.543,0.393-0.813,0.911-0.813,1.555c0,0.705,0.356,1.268,1.069,1.691c0.412,0.251,1.02,0.474,1.822,0.665l1.838,0.439   c1.998,0.475,3.336,0.935,4.015,1.379c1.062,0.697,1.591,1.793,1.591,3.289c0,1.445-0.555,2.692-1.665,3.743   c-1.11,1.05-2.8,1.576-5.071,1.576c-2.441,0-4.176-0.548-5.191-1.645c-1.018-1.097-1.562-2.453-1.635-4.069h2.621v0.003H340.683   L340.683,31.431z"/>
	<path d="M354.578,14.26h2.772v3.092h-2.772V14.26z M354.578,20.368h2.772v16.155h-2.772V20.368z"/>
	<path d="M363.095,31.431c0.084,0.909,0.314,1.606,0.696,2.091c0.701,0.879,1.918,1.318,3.649,1.318c1.031,0,1.938-0.22,2.723-0.659   c0.783-0.439,1.176-1.119,1.176-2.039c0-0.697-0.312-1.228-0.939-1.591c-0.398-0.222-1.189-0.48-2.373-0.773l-2.199-0.546   c-1.407-0.343-2.444-0.727-3.111-1.151c-1.189-0.738-1.785-1.758-1.785-3.062c0-1.536,0.561-2.778,1.684-3.728   c1.121-0.949,2.627-1.424,4.521-1.424c2.479,0,4.267,0.717,5.359,2.152c0.688,0.909,1.021,1.889,0.999,2.94h-2.576   c-0.053-0.613-0.271-1.17-0.667-1.673c-0.644-0.713-1.753-1.07-3.335-1.07c-1.057,0-1.854,0.196-2.396,0.589   s-0.813,0.911-0.813,1.555c0,0.705,0.356,1.268,1.069,1.691c0.412,0.251,1.02,0.474,1.822,0.665l1.838,0.439   c1.996,0.475,3.334,0.935,4.015,1.379c1.062,0.697,1.591,1.793,1.591,3.289c0,1.445-0.557,2.692-1.665,3.743   c-1.108,1.05-2.8,1.576-5.069,1.576c-2.445,0-4.178-0.548-5.192-1.645c-1.019-1.097-1.562-2.453-1.636-4.069h2.621v0.003H363.095   L363.095,31.431z"/>
</g>
<line fill="none" stroke="#7AC943" stroke-width="8" stroke-miterlimit="10" x1="41.387" y1="499.898" x2="41.387" y2="539.898"/>
<line fill="none" stroke="#3FA9F5" stroke-width="8" stroke-miterlimit="10" x1="70.387" y1="499.898" x2="70.387" y2="539.898"/>
<line fill="none" stroke="#FF931E" stroke-width="8" stroke-miterlimit="10" x1="100.387" y1="499.898" x2="100.387" y2="539.898"/>
<line fill="none" stroke="#FF1D25" stroke-width="8" stroke-miterlimit="10" x1="130.387" y1="499.898" x2="130.387" y2="539.898"/>
<line fill="none" stroke="#3FA9F5" stroke-width="8" stroke-miterlimit="10" x1="160.387" y1="499.898" x2="160.387" y2="539.898"/>
<line fill="none" stroke="#7AC943" stroke-width="8" stroke-miterlimit="10" x1="189.387" y1="499.898" x2="189.387" y2="539.898"/>
<line fill="none" stroke="#FF931E" stroke-width="8" stroke-miterlimit="10" x1="219.387" y1="499.898" x2="219.387" y2="539.898"/>
<line fill="none" stroke="#3FA9F5" stroke-width="8" stroke-miterlimit="10" x1="249.387" y1="499.898" x2="249.387" y2="539.898"/>
<line fill="none" stroke="#7AC943" stroke-width="8" stroke-miterlimit="10" x1="276.387" y1="499.898" x2="276.387" y2="539.898"/>
<line fill="none" stroke="#FF1D25" stroke-width="8" stroke-miterlimit="10" x1="306.387" y1="499.898" x2="306.387" y2="539.898"/>
<line fill="none" stroke="#FF931E" stroke-width="8" stroke-miterlimit="10" x1="336.387" y1="499.898" x2="336.387" y2="539.898"/>
<line fill="none" stroke="#3FA9F5" stroke-width="8" stroke-miterlimit="10" x1="365.388" y1="499.898" x2="365.388" y2="539.898"/>
<line fill="none" stroke="#FF931E" stroke-width="8" stroke-miterlimit="10" x1="395.388" y1="499.898" x2="395.388" y2="539.898"/>
<line fill="none" stroke="#7AC943" stroke-width="8" stroke-miterlimit="10" x1="424.387" y1="499.898" x2="424.387" y2="539.898"/>
<line fill="none" stroke="#3FA9F5" stroke-width="8" stroke-miterlimit="10" x1="455.387" y1="499.898" x2="455.387" y2="539.898"/>
<line fill="none" stroke="#7AC943" stroke-width="8" stroke-miterlimit="10" x1="484.387" y1="499.898" x2="484.387" y2="539.898"/>
<line fill="none" stroke="#FF1D25" stroke-width="8" stroke-miterlimit="10" x1="69.387" y1="490.898" x2="69.387" y2="450.898"/>
<line fill="none" stroke="#FF931E" stroke-width="8" stroke-miterlimit="10" x1="40.387" y1="490.898" x2="40.387" y2="450.898"/>
<line fill="none" stroke="#3FA9F5" stroke-width="8" stroke-miterlimit="10" x1="511.387" y1="499.898" x2="511.387" y2="539.898"/>
<line fill="none" stroke="#FF1D25" stroke-width="8" stroke-miterlimit="10" x1="540.387" y1="499.898" x2="540.387" y2="539.898"/>
<line fill="none" stroke="#FF931E" stroke-width="8" stroke-miterlimit="10" x1="570.387" y1="499.898" x2="570.387" y2="539.898"/>
<line fill="none" stroke="#7AC943" stroke-width="8" stroke-miterlimit="10" x1="205.423" y1="393.016" x2="198.376" y2="432.042"/>
<line fill="none" stroke="#3FA9F5" stroke-width="8" stroke-miterlimit="10" x1="234.269" y1="398.222" x2="227.222" y2="437.25"/>
<line fill="none" stroke="#FF1D25" stroke-width="8" stroke-miterlimit="10" x1="263.963" y1="403.584" x2="256.917" y2="442.612"/>
<line fill="none" stroke="#FF931E" stroke-width="8" stroke-miterlimit="10" x1="292.809" y1="408.792" x2="285.763" y2="447.819"/>
<line fill="none" stroke="#7AC943" stroke-width="8" stroke-miterlimit="10" x1="322.504" y1="414.155" x2="315.457" y2="453.181"/>
<line fill="none" stroke="#000000" stroke-width="8" stroke-miterlimit="10" x1="191" y1="390.412" x2="342.017" y2="417.677"/>
<g>
	<g>
		<path fill="none" stroke="#000000" stroke-width="2" stroke-miterlimit="10" d="M189.19,409.722    c-23.168-6.996-50.934,15.74-65.504,51.981"/>
		<g>
			<path d="M119.689,473.096c-0.057-6.058-1.05-13.903-3.152-19.308l7.782,6.462l10.113-0.012     C129.368,463.056,123.596,468.466,119.689,473.096z"/>
		</g>
	</g>
</g>
<line fill="none" stroke="#000000" stroke-width="8" stroke-miterlimit="10" x1="16.387" y1="539.898" x2="654.387" y2="539.898"/>
<line fill="none" stroke="#000000" stroke-width="8" stroke-miterlimit="10" x1="93.387" y1="450.898" x2="16.387" y2="450.898"/>
<line fill="none" stroke="#000000" stroke-width="2" stroke-miterlimit="10" x1="340.281" y1="415.576" x2="372.735" y2="404.852"/>
<circle fill="#FF1D25" stroke="#000000" stroke-width="2" stroke-miterlimit="10" cx="383.636" cy="401.269" r="10.724"/>
<g>
	<rect x="14.516" y="53.87" fill="none" width="31.899" height="49.141"/>
	<path d="M16.167,67.732c-0.771-0.94-1.157-2.083-1.157-3.43h1.899c0.081,0.936,0.256,1.616,0.525,2.041   c0.471,0.761,1.323,1.142,2.556,1.142c0.956,0,1.724-0.256,2.303-0.768c0.579-0.512,0.869-1.172,0.869-1.98   c0-0.997-0.305-1.694-0.915-2.091s-1.457-0.596-2.541-0.596c-0.121,0-0.244,0.001-0.369,0.005   c-0.125,0.004-0.251,0.009-0.379,0.015v-1.606c0.188,0.021,0.347,0.034,0.475,0.041c0.127,0.007,0.266,0.01,0.414,0.01   c0.68,0,1.239-0.108,1.677-0.323c0.768-0.377,1.151-1.051,1.151-2.021c0-0.72-0.256-1.276-0.768-1.667   c-0.512-0.39-1.108-0.586-1.788-0.586c-1.212,0-2.051,0.404-2.516,1.212c-0.256,0.445-0.4,1.078-0.434,1.899h-1.798   c0-1.078,0.215-1.994,0.646-2.748c0.741-1.347,2.044-2.021,3.91-2.021c1.475,0,2.617,0.328,3.425,0.985   c0.808,0.657,1.212,1.608,1.212,2.854c0,0.889-0.239,1.61-0.717,2.162c-0.297,0.344-0.681,0.613-1.152,0.809   c0.761,0.209,1.355,0.611,1.783,1.207c0.428,0.596,0.642,1.325,0.642,2.188c0,1.381-0.455,2.505-1.364,3.375   c-0.909,0.869-2.199,1.303-3.869,1.303C18.18,69.141,16.938,68.671,16.167,67.732z"/>
	<path d="M27.74,58.22c0.374-0.061,0.658-0.27,0.852-0.626c0.193-0.357,0.291-0.768,0.291-1.232c0-0.047-0.002-0.089-0.005-0.126   c-0.003-0.037-0.012-0.079-0.025-0.126H27.74v-2.202h2.162v2.031c0,0.862-0.178,1.595-0.535,2.197   c-0.357,0.604-0.899,0.948-1.627,1.036V58.22z"/>
</g>
<g>
	<rect x="648.221" y="54.87" fill="none" width="31.898" height="49.141"/>
	<path d="M650.775,66.06c0.122,1.037,0.604,1.754,1.442,2.152c0.434,0.202,0.933,0.303,1.495,0.303c1.077,0,1.876-0.344,2.396-1.031   c0.519-0.687,0.774-1.448,0.774-2.283c0-1.01-0.308-1.792-0.924-2.344c-0.616-0.552-1.354-0.829-2.218-0.829   c-0.626,0-1.164,0.121-1.611,0.364c-0.448,0.242-0.83,0.579-1.146,1.01l-1.576-0.091l1.102-7.79h7.52v1.758h-6.153l-0.616,4.021   c0.337-0.256,0.656-0.448,0.96-0.576c0.539-0.222,1.162-0.333,1.869-0.333c1.326,0,2.451,0.428,3.374,1.283s1.385,1.94,1.385,3.253   c0,1.368-0.423,2.573-1.269,3.617c-0.845,1.044-2.194,1.566-4.046,1.566c-1.181,0-2.224-0.332-3.127-0.995   c-0.906-0.664-1.413-1.682-1.521-3.056L650.775,66.06L650.775,66.06z"/>
	<path d="M661.445,59.22c0.374-0.061,0.654-0.27,0.851-0.626c0.194-0.357,0.291-0.768,0.291-1.232c0-0.047-0.002-0.089-0.005-0.126   c-0.004-0.037-0.013-0.079-0.025-0.126h-1.108v-2.202h2.162v2.031c0,0.862-0.182,1.595-0.536,2.197   c-0.356,0.604-0.898,0.948-1.626,1.036L661.445,59.22L661.445,59.22z"/>
</g>
<g>
	<rect x="26.465" y="347.826" fill="none" width="341.156" height="27.105"/>
	<path d="M30.799,362.958c0.068,1.264,0.355,2.289,0.861,3.077c0.963,1.475,2.662,2.212,5.095,2.212c1.09,0,2.083-0.161,2.979-0.484   c1.732-0.627,2.598-1.748,2.598-3.361c0-1.216-0.367-2.076-1.101-2.595c-0.744-0.505-1.908-0.941-3.494-1.315l-2.921-0.685   c-1.909-0.442-3.259-0.935-4.052-1.471c-1.371-0.929-2.056-2.318-2.056-4.167c0-2.001,0.674-3.643,2.021-4.926   c1.347-1.282,3.254-1.925,5.722-1.925c2.271,0,4.2,0.562,5.788,1.688c1.588,1.126,2.382,2.927,2.382,5.402h-2.834   c-0.146-1.192-0.456-2.106-0.93-2.743c-0.882-1.161-2.378-1.742-4.49-1.742c-1.705,0-2.93,0.373-3.676,1.121   s-1.119,1.616-1.119,2.606c0,1.091,0.44,1.89,1.322,2.395c0.578,0.323,1.884,0.729,3.92,1.212l3.025,0.713   c1.458,0.347,2.584,0.813,3.377,1.409c1.371,1.041,2.056,2.551,2.056,4.531c0,2.465-0.874,4.229-2.623,5.289   c-1.749,1.06-3.781,1.591-6.097,1.591c-2.7,0-4.813-0.707-6.34-2.121c-1.528-1.404-2.276-3.309-2.246-5.714L30.799,362.958   L30.799,362.958z"/>
	<path d="M59.192,354.358c1.074,0.54,1.893,1.237,2.455,2.099c0.542,0.818,0.904,1.773,1.085,2.864   c0.16,0.748,0.241,1.938,0.241,3.576H51.167c0.05,1.648,0.436,2.977,1.158,3.975c0.722,0.997,1.839,1.496,3.353,1.496   c1.414,0,2.541-0.472,3.383-1.415c0.471-0.548,0.805-1.186,1.001-1.903h2.683c-0.071,0.597-0.306,1.261-0.705,1.993   s-0.844,1.331-1.335,1.795c-0.822,0.812-1.84,1.354-3.053,1.637c-0.652,0.162-1.389,0.243-2.211,0.243   c-2.008,0-3.709-0.732-5.105-2.205c-1.396-1.47-2.093-3.525-2.093-6.176c0-2.604,0.703-4.723,2.108-6.35   c1.405-1.627,3.243-2.44,5.513-2.44C57.008,353.546,58.117,353.817,59.192,354.358z M60.168,360.73   c-0.11-1.185-0.366-2.13-0.766-2.834c-0.742-1.313-1.979-1.973-3.712-1.973c-1.242,0-2.284,0.452-3.125,1.356   c-0.842,0.901-1.288,2.053-1.337,3.444h8.94V360.73z"/>
	<path d="M75.583,354.562c0.504,0.361,0.989,0.896,1.453,1.604v-2.258h2.577v22.701h-2.728v-8.335   c-0.454,0.728-1.082,1.306-1.884,1.732c-0.802,0.432-1.804,0.646-3.004,0.646c-1.725,0-3.269-0.68-4.631-2.031   c-1.362-1.354-2.043-3.415-2.043-6.183c0-2.6,0.638-4.729,1.915-6.396c1.277-1.667,2.929-2.501,4.957-2.501   C73.535,353.546,74.665,353.885,75.583,354.562z M68.761,365.777c0.695,1.688,1.941,2.527,3.736,2.527   c1.896,0,3.202-0.889,3.918-2.667c0.393-0.979,0.59-2.229,0.59-3.758c0-1.403-0.217-2.577-0.65-3.517   c-0.736-1.606-2.032-2.409-3.888-2.409c-1.18,0-2.191,0.513-3.033,1.538c-0.842,1.022-1.263,2.607-1.263,4.751   C68.17,363.65,68.367,364.827,68.761,365.777z"/>
	<path d="M86.417,353.911v10.771c0,0.829,0.128,1.509,0.384,2.031c0.472,0.97,1.353,1.455,2.642,1.455   c1.85,0,3.109-0.849,3.778-2.546c0.364-0.91,0.546-2.157,0.546-3.743v-7.972h2.728v16.229h-2.576l0.03-2.395   c-0.348,0.616-0.779,1.137-1.294,1.561c-1.021,0.853-2.26,1.273-3.717,1.273c-2.271,0-3.817-0.772-4.64-2.318   c-0.446-0.828-0.669-1.935-0.669-3.316V353.91L86.417,353.911L86.417,353.911z"/>
	<path d="M110.976,354.358c1.074,0.54,1.893,1.237,2.455,2.099c0.542,0.818,0.904,1.773,1.085,2.864   c0.16,0.748,0.241,1.938,0.241,3.576h-11.805c0.05,1.648,0.436,2.977,1.158,3.975c0.722,0.997,1.839,1.496,3.353,1.496   c1.414,0,2.541-0.472,3.383-1.415c0.471-0.548,0.805-1.186,1.001-1.903h2.683c-0.071,0.597-0.306,1.261-0.705,1.993   c-0.399,0.732-0.844,1.331-1.335,1.795c-0.822,0.812-1.84,1.354-3.053,1.637c-0.652,0.162-1.389,0.243-2.211,0.243   c-2.008,0-3.709-0.732-5.105-2.205c-1.396-1.47-2.093-3.525-2.093-6.176c0-2.604,0.703-4.723,2.108-6.35   c1.405-1.627,3.243-2.44,5.513-2.44C108.792,353.546,109.901,353.817,110.976,354.358z M111.952,360.73   c-0.11-1.185-0.366-2.13-0.766-2.834c-0.742-1.313-1.979-1.973-3.712-1.973c-1.242,0-2.284,0.452-3.125,1.356   c-0.842,0.901-1.288,2.053-1.337,3.444h8.94V360.73L111.952,360.73z"/>
	<path d="M118.211,353.911h2.591v2.304c0.768-0.95,1.581-1.632,2.44-2.046c0.858-0.414,1.813-0.622,2.864-0.622   c2.303,0,3.859,0.804,4.667,2.41c0.444,0.879,0.667,2.137,0.667,3.773v10.408h-2.773V359.91c0-0.99-0.146-1.788-0.439-2.396   c-0.485-1.01-1.364-1.516-2.637-1.516c-0.647,0-1.177,0.066-1.591,0.197c-0.748,0.223-1.404,0.667-1.97,1.334   c-0.455,0.535-0.75,1.089-0.887,1.659c-0.136,0.568-0.205,1.387-0.205,2.444v8.502h-2.728L118.211,353.911L118.211,353.911z"/>
	<path d="M146.194,354.774c1.146,0.89,1.836,2.42,2.069,4.592h-2.652c-0.162-1-0.53-1.831-1.106-2.492   c-0.576-0.662-1.5-0.993-2.773-0.993c-1.738,0-2.98,0.848-3.728,2.543c-0.485,1.103-0.728,2.457-0.728,4.072   c0,1.624,0.343,2.991,1.031,4.102c0.687,1.11,1.768,1.665,3.243,1.665c1.131,0,2.028-0.345,2.69-1.034   c0.661-0.688,1.119-1.633,1.371-2.827h2.652c-0.303,2.148-1.061,3.726-2.273,4.721c-1.212,0.995-2.763,1.492-4.652,1.492   c-2.122,0-3.814-0.775-5.077-2.326c-1.263-1.551-1.895-3.488-1.895-5.812c0-2.85,0.692-5.063,2.076-6.65   c1.384-1.586,3.147-2.379,5.289-2.379C143.56,353.441,145.048,353.885,146.194,354.774z"/>
	<path d="M150.991,347.879h2.773v3.091h-2.773V347.879z M150.991,353.986h2.773v16.152h-2.773V353.986z"/>
	<path d="M157.886,353.911h2.591v2.304c0.768-0.95,1.581-1.632,2.44-2.046c0.858-0.414,1.813-0.622,2.864-0.622   c2.303,0,3.859,0.804,4.667,2.41c0.444,0.879,0.667,2.137,0.667,3.773v10.408h-2.773V359.91c0-0.99-0.146-1.788-0.439-2.396   c-0.485-1.01-1.364-1.516-2.637-1.516c-0.647,0-1.177,0.066-1.591,0.197c-0.748,0.223-1.404,0.667-1.97,1.334   c-0.455,0.535-0.75,1.089-0.887,1.659c-0.136,0.568-0.205,1.387-0.205,2.444v8.502h-2.728L157.886,353.911L157.886,353.911z"/>
	<path d="M184.17,354.562c0.513,0.354,1.037,0.866,1.57,1.546v-2.046h2.516v14.761c0,2.061-0.302,3.688-0.906,4.88   c-1.128,2.202-3.258,3.304-6.389,3.304c-1.742,0-3.207-0.392-4.395-1.175s-1.853-2.008-1.995-3.675h2.773   c0.13,0.728,0.392,1.288,0.784,1.682c0.613,0.606,1.578,0.91,2.894,0.91c2.08,0,3.441-0.738,4.084-2.213   c0.382-0.869,0.558-2.42,0.527-4.652c-0.543,0.828-1.197,1.444-1.962,1.852c-0.765,0.401-1.776,0.604-3.034,0.604   c-1.751,0-3.283-0.624-4.596-1.872c-1.313-1.247-1.97-3.312-1.97-6.188c0-2.721,0.662-4.84,1.985-6.365   c1.323-1.525,2.921-2.288,4.792-2.288C182.117,353.623,183.224,353.936,184.17,354.562z M184.504,357.487   c-0.825-0.973-1.875-1.455-3.151-1.455c-1.91,0-3.217,0.896-3.92,2.698c-0.372,0.96-0.558,2.218-0.558,3.771   c0,1.828,0.37,3.22,1.108,4.175c0.738,0.955,1.731,1.436,2.978,1.436c1.95,0,3.322-0.888,4.116-2.652   c0.442-1,0.663-2.167,0.663-3.501C185.74,359.948,185.328,358.457,184.504,357.487z"/>
	<path d="M200.804,347.803h2.652v8.077c0.598-0.777,1.313-1.371,2.145-1.78c0.832-0.406,1.734-0.611,2.708-0.611   c2.028,0,3.674,0.692,4.937,2.084c1.263,1.39,1.894,3.438,1.894,6.146c0,2.566-0.624,4.697-1.872,6.396   c-1.247,1.694-2.977,2.546-5.188,2.546c-1.237,0-2.282-0.299-3.134-0.896c-0.507-0.354-1.05-0.919-1.628-1.694v2.073h-2.516   v-22.339L200.804,347.803L200.804,347.803z M211.234,366.489c0.735-1.172,1.103-2.718,1.103-4.641c0-1.707-0.367-3.118-1.103-4.24   c-0.735-1.121-1.817-1.685-3.246-1.685c-1.247,0-2.339,0.46-3.277,1.379c-0.938,0.92-1.407,2.438-1.407,4.546   c0,1.526,0.193,2.767,0.578,3.716c0.719,1.786,2.062,2.683,4.029,2.683C209.392,368.247,210.5,367.661,211.234,366.489z"/>
	<path d="M228.439,353.911h3.016c-0.384,1.041-1.238,3.416-2.561,7.126c-0.99,2.79-1.818,5.062-2.485,6.822   c-1.575,4.14-2.685,6.663-3.331,7.569c-0.646,0.908-1.756,1.363-3.331,1.363c-0.383,0-0.679-0.016-0.886-0.046   s-0.462-0.086-0.765-0.167v-2.485c0.474,0.135,0.817,0.213,1.029,0.243s0.398,0.045,0.56,0.045c0.504,0,0.875-0.083,1.112-0.249   c0.237-0.167,0.436-0.371,0.598-0.61c0.05-0.08,0.232-0.494,0.544-1.24s0.54-1.301,0.681-1.663l-6.001-16.708h3.092l4.349,13.221   L228.439,353.911z"/>
	<path d="M242.798,347.879h3.016v19.609h11.169v2.649h-14.185V347.879z"/>
	<path d="M259.695,347.879h2.773v3.091h-2.773V347.879z M259.695,353.986h2.773v16.152h-2.773V353.986z"/>
	<path d="M275.614,354.562c0.513,0.354,1.037,0.866,1.57,1.546v-2.046h2.516v14.761c0,2.061-0.302,3.688-0.906,4.88   c-1.128,2.202-3.258,3.304-6.389,3.304c-1.742,0-3.207-0.392-4.395-1.175c-1.188-0.783-1.853-2.008-1.995-3.675h2.773   c0.13,0.728,0.392,1.288,0.784,1.682c0.613,0.606,1.578,0.91,2.894,0.91c2.08,0,3.441-0.738,4.084-2.213   c0.382-0.869,0.558-2.42,0.527-4.652c-0.543,0.828-1.197,1.444-1.962,1.852c-0.765,0.401-1.776,0.604-3.034,0.604   c-1.751,0-3.283-0.624-4.596-1.872c-1.313-1.247-1.97-3.312-1.97-6.188c0-2.721,0.662-4.84,1.985-6.365   c1.323-1.525,2.921-2.288,4.792-2.288C273.561,353.623,274.667,353.936,275.614,354.562z M275.948,357.487   c-0.825-0.973-1.875-1.455-3.151-1.455c-1.91,0-3.217,0.896-3.92,2.698c-0.372,0.96-0.558,2.218-0.558,3.771   c0,1.828,0.37,3.22,1.108,4.175c0.738,0.955,1.731,1.436,2.978,1.436c1.95,0,3.322-0.888,4.116-2.652   c0.442-1,0.663-2.167,0.663-3.501C277.184,359.948,276.771,358.457,275.948,357.487z"/>
	<path d="M292.551,360.319c0.626-0.081,1.046-0.346,1.258-0.787c0.121-0.243,0.182-0.593,0.182-1.05c0-0.936-0.33-1.609-0.991-2.03   c-0.66-0.421-1.605-0.632-2.835-0.632c-1.422,0-2.43,0.386-3.025,1.154c-0.333,0.43-0.549,1.062-0.65,1.904h-2.546   c0.05-2.006,0.699-3.398,1.945-4.188c1.247-0.785,2.692-1.181,4.337-1.181c1.907,0,3.456,0.364,4.647,1.095   c1.181,0.728,1.771,1.855,1.771,3.395v9.354c0,0.28,0.058,0.511,0.174,0.682c0.116,0.172,0.361,0.258,0.735,0.258   c0.121,0,0.258-0.008,0.409-0.021c0.151-0.018,0.313-0.037,0.485-0.067v2.016c-0.424,0.121-0.748,0.196-0.97,0.229   c-0.223,0.028-0.525,0.046-0.909,0.046c-0.94,0-1.622-0.333-2.046-1c-0.223-0.354-0.379-0.854-0.47-1.5   c-0.556,0.728-1.354,1.355-2.394,1.894c-1.041,0.535-2.188,0.807-3.44,0.807c-1.505,0-2.735-0.457-3.69-1.37   c-0.955-0.913-1.432-2.059-1.432-3.431c0-1.504,0.47-2.67,1.409-3.494c0.94-0.827,2.172-1.339,3.698-1.528L292.551,360.319z    M286.807,367.688c0.576,0.453,1.258,0.683,2.046,0.683c0.959,0,1.889-0.222,2.789-0.665c1.515-0.736,2.273-1.942,2.273-3.616   v-2.194c-0.333,0.216-0.761,0.394-1.286,0.532c-0.524,0.146-1.039,0.243-1.542,0.306l-1.648,0.213   c-0.988,0.131-1.731,0.338-2.229,0.618c-0.843,0.476-1.265,1.229-1.265,2.27C285.943,366.614,286.231,367.234,286.807,367.688z"/>
	<path d="M301.659,349.379h2.758v4.531h2.591v2.228h-2.591v10.596c0,0.563,0.192,0.942,0.576,1.137   c0.212,0.108,0.566,0.167,1.061,0.167c0.131,0,0.272-0.003,0.424-0.01c0.151-0.01,0.328-0.023,0.53-0.054v2.167   c-0.313,0.094-0.639,0.156-0.978,0.197c-0.338,0.04-0.705,0.062-1.099,0.062c-1.273,0-2.137-0.326-2.591-0.979   s-0.682-1.498-0.682-2.538v-10.745h-2.197v-2.228h2.197L301.659,349.379L301.659,349.379z"/>
	<path d="M309.736,347.879h2.773v3.091h-2.773V347.879z M309.736,353.986h2.773v16.152h-2.773V353.986z"/>
	<path d="M328.392,355.531c1.435,1.393,2.152,3.438,2.152,6.146c0,2.615-0.632,4.775-1.896,6.481   c-1.264,1.705-3.225,2.559-5.884,2.559c-2.217,0-3.978-0.755-5.282-2.264s-1.956-3.535-1.956-6.079   c0-2.726,0.687-4.896,2.062-6.511c1.375-1.615,3.22-2.423,5.538-2.423C325.202,353.441,326.957,354.137,328.392,355.531z    M326.698,366.317c0.665-1.367,0.997-2.892,0.997-4.563c0-1.514-0.24-2.744-0.72-3.693c-0.759-1.49-2.068-2.237-3.926-2.237   c-1.648,0-2.847,0.636-3.597,1.905c-0.749,1.271-1.124,2.808-1.124,4.604c0,1.726,0.375,3.164,1.124,4.312   c0.75,1.15,1.938,1.729,3.567,1.729C324.808,368.368,326.034,367.684,326.698,366.317z"/>
	<path d="M333.893,353.911h2.59v2.304c0.769-0.95,1.583-1.632,2.44-2.046c0.858-0.414,1.812-0.622,2.864-0.622   c2.303,0,3.858,0.804,4.667,2.41c0.443,0.879,0.667,2.137,0.667,3.773v10.408h-2.772V359.91c0-0.99-0.146-1.788-0.438-2.396   c-0.485-1.01-1.364-1.516-2.639-1.516c-0.646,0-1.176,0.066-1.59,0.197c-0.748,0.223-1.404,0.667-1.972,1.334   c-0.455,0.535-0.75,1.089-0.887,1.659c-0.138,0.568-0.205,1.387-0.205,2.444v8.502h-2.728L333.893,353.911L333.893,353.911z"/>
</g>
<g>
	<rect x="645.497" y="554.042" fill="none" width="31.896" height="49.142"/>
	<path d="M647.146,567.903c-0.771-0.939-1.156-2.083-1.156-3.432h1.898c0.08,0.938,0.256,1.615,0.523,2.041   c0.473,0.763,1.323,1.144,2.557,1.144c0.957,0,1.727-0.256,2.306-0.771c0.578-0.513,0.868-1.173,0.868-1.979   c0-0.997-0.305-1.694-0.914-2.092c-0.608-0.398-1.456-0.599-2.541-0.599c-0.121,0-0.243,0.003-0.368,0.006   c-0.125,0.005-0.251,0.011-0.38,0.018v-1.606c0.188,0.021,0.349,0.033,0.476,0.04c0.129,0.008,0.269,0.012,0.414,0.012   c0.682,0,1.239-0.106,1.68-0.322c0.769-0.377,1.15-1.053,1.15-2.021c0-0.721-0.257-1.273-0.77-1.667   c-0.513-0.391-1.107-0.586-1.788-0.586c-1.213,0-2.051,0.404-2.518,1.214c-0.256,0.443-0.399,1.076-0.436,1.898h-1.799   c0-1.078,0.217-1.994,0.646-2.748c0.741-1.348,2.045-2.021,3.91-2.021c1.477,0,2.616,0.329,3.426,0.984   c0.81,0.657,1.213,1.608,1.213,2.854c0,0.89-0.238,1.607-0.719,2.161c-0.296,0.345-0.681,0.611-1.15,0.81   c0.762,0.209,1.354,0.611,1.783,1.208c0.429,0.596,0.643,1.325,0.643,2.188c0,1.381-0.455,2.506-1.363,3.375   c-0.909,0.868-2.198,1.305-3.868,1.305C649.159,569.312,647.919,568.842,647.146,567.903z"/>
	<path d="M658.72,558.391c0.375-0.062,0.656-0.271,0.853-0.626c0.194-0.355,0.291-0.77,0.291-1.231c0-0.047-0.002-0.089-0.005-0.126   c-0.005-0.037-0.014-0.079-0.024-0.126h-1.11v-2.203h2.161v2.031c0,0.86-0.18,1.595-0.535,2.195   c-0.354,0.604-0.897,0.947-1.626,1.034L658.72,558.391L658.72,558.391z"/>
</g>
<g>
	<rect x="15.287" y="554.342" fill="none" width="31.897" height="49.142"/>
	<path d="M17.843,565.531c0.121,1.035,0.604,1.755,1.445,2.148c0.431,0.202,0.929,0.305,1.495,0.305   c1.078,0,1.875-0.345,2.395-1.028c0.521-0.688,0.778-1.448,0.778-2.283c0-1.011-0.308-1.792-0.925-2.345   c-0.615-0.553-1.354-0.828-2.217-0.828c-0.628,0-1.164,0.121-1.611,0.362c-0.448,0.241-0.83,0.579-1.147,1.012l-1.574-0.091   l1.102-7.79H25.1v1.759h-6.151l-0.616,4.021c0.337-0.257,0.657-0.445,0.96-0.575c0.539-0.224,1.162-0.332,1.869-0.332   c1.326,0,2.451,0.428,3.373,1.281c0.924,0.854,1.385,1.938,1.385,3.254c0,1.366-0.424,2.571-1.268,3.616   c-0.847,1.044-2.194,1.564-4.048,1.564c-1.179,0-2.221-0.331-3.127-0.995c-0.905-0.663-1.411-1.682-1.521-3.057L17.843,565.531   L17.843,565.531z"/>
	<path d="M28.512,558.69c0.374-0.062,0.658-0.271,0.853-0.626c0.193-0.355,0.291-0.77,0.291-1.231c0-0.047-0.002-0.089-0.004-0.126   c-0.005-0.037-0.014-0.079-0.025-0.126h-1.111v-2.203h2.162v2.031c0,0.86-0.178,1.595-0.535,2.195   c-0.356,0.604-0.897,0.947-1.627,1.034v-0.947L28.512,558.69L28.512,558.69z"/>
</g>
<g>
	<rect x="23.194" y="205.67" fill="none" width="237.75" height="74.144"/>
	<path d="M36.995,207.828c0.983,1.313,1.475,2.994,1.475,5.042c0,2.216-0.562,4.058-1.688,5.526   c-1.32,1.724-3.203,2.586-5.647,2.586c-2.283,0-4.078-0.754-5.385-2.263c-1.166-1.455-1.748-3.293-1.748-5.516   c0-2.007,0.499-3.725,1.496-5.153c1.279-1.832,3.172-2.748,5.678-2.748C33.796,205.302,35.735,206.144,36.995,207.828z    M35.222,217.288c0.791-1.271,1.187-2.732,1.187-4.383c0-1.746-0.457-3.151-1.369-4.216c-0.913-1.065-2.16-1.598-3.743-1.598   c-1.536,0-2.788,0.528-3.758,1.583c-0.97,1.055-1.455,2.61-1.455,4.666c0,1.645,0.416,3.032,1.248,4.161s2.181,1.693,4.046,1.693   C33.149,219.193,34.431,218.558,35.222,217.288z"/>
	<path d="M40.622,209.727h1.728v1.536c0.512-0.633,1.054-1.088,1.627-1.364c0.572-0.276,1.208-0.415,1.909-0.415   c1.536,0,2.573,0.536,3.112,1.606c0.296,0.586,0.445,1.425,0.445,2.516v6.941h-1.849v-6.819c0-0.66-0.098-1.192-0.293-1.597   c-0.323-0.673-0.909-1.01-1.758-1.01c-0.431,0-0.785,0.044-1.061,0.131c-0.499,0.148-0.936,0.445-1.313,0.889   c-0.303,0.357-0.5,0.726-0.591,1.106c-0.091,0.38-0.136,0.924-0.136,1.631v5.668h-1.819L40.622,209.727L40.622,209.727z"/>
	<path d="M58.813,210.025c0.716,0.36,1.262,0.827,1.637,1.399c0.361,0.545,0.603,1.182,0.723,1.91   c0.107,0.499,0.161,1.293,0.161,2.384h-7.871c0.034,1.101,0.291,1.984,0.772,2.649s1.227,0.998,2.235,0.998   c0.942,0,1.694-0.314,2.256-0.944c0.314-0.365,0.537-0.788,0.667-1.269h1.788c-0.047,0.397-0.204,0.84-0.47,1.329   c-0.266,0.489-0.563,0.887-0.89,1.197c-0.548,0.539-1.227,0.902-2.036,1.091c-0.435,0.108-0.926,0.162-1.474,0.162   c-1.339,0-2.473-0.49-3.404-1.47c-0.93-0.98-1.396-2.353-1.396-4.117c0-1.738,0.469-3.148,1.406-4.233s2.162-1.627,3.675-1.627   C57.357,209.484,58.097,209.665,58.813,210.025z M59.464,214.273c-0.074-0.788-0.244-1.418-0.511-1.889   c-0.494-0.875-1.319-1.313-2.474-1.313c-0.828,0-1.523,0.301-2.084,0.904s-0.858,1.369-0.892,2.298H59.464z"/>
	<path d="M69.234,205.655h1.768v5.385c0.399-0.519,0.875-0.915,1.43-1.188c0.554-0.272,1.156-0.409,1.805-0.409   c1.352,0,2.449,0.463,3.292,1.389c0.841,0.926,1.263,2.292,1.263,4.097c0,1.711-0.416,3.132-1.248,4.263   c-0.832,1.132-1.985,1.697-3.458,1.697c-0.825,0-1.521-0.199-2.089-0.596c-0.338-0.236-0.7-0.613-1.085-1.132v1.384h-1.677   L69.234,205.655L69.234,205.655z M76.187,218.112c0.49-0.781,0.735-1.812,0.735-3.091c0-1.138-0.245-2.081-0.735-2.829   c-0.49-0.748-1.211-1.121-2.164-1.121c-0.831,0-1.559,0.307-2.185,0.919c-0.625,0.613-0.938,1.623-0.938,3.031   c0,1.017,0.128,1.842,0.385,2.475c0.479,1.192,1.375,1.789,2.686,1.789C74.959,219.285,75.697,218.894,76.187,218.112z"/>
	<path d="M86.692,213.999c0.417-0.054,0.697-0.229,0.839-0.524c0.081-0.162,0.121-0.396,0.121-0.7c0-0.622-0.22-1.073-0.661-1.354   c-0.441-0.281-1.07-0.421-1.89-0.421c-0.948,0-1.62,0.257-2.017,0.771c-0.222,0.285-0.366,0.708-0.434,1.27h-1.697   c0.034-1.337,0.466-2.268,1.297-2.792c0.831-0.523,1.794-0.785,2.891-0.785c1.271,0,2.304,0.242,3.098,0.728   c0.787,0.485,1.18,1.239,1.18,2.263v6.234c0,0.188,0.039,0.34,0.116,0.455c0.078,0.114,0.241,0.171,0.49,0.171   c0.081,0,0.172-0.005,0.273-0.015c0.101-0.01,0.208-0.025,0.323-0.045v1.343c-0.283,0.081-0.499,0.131-0.647,0.152   c-0.148,0.02-0.35,0.03-0.606,0.03c-0.626,0-1.081-0.222-1.364-0.667c-0.148-0.236-0.253-0.569-0.313-1   c-0.37,0.485-0.902,0.906-1.596,1.263c-0.694,0.356-1.458,0.535-2.293,0.535c-1.003,0-1.823-0.305-2.46-0.913   c-0.637-0.609-0.955-1.371-0.955-2.286c0-1.002,0.313-1.779,0.939-2.331c0.626-0.551,1.448-0.891,2.465-1.019L86.692,213.999z    M82.863,218.912c0.384,0.303,0.838,0.454,1.364,0.454c0.64,0,1.26-0.148,1.859-0.444c1.011-0.491,1.516-1.294,1.516-2.411v-1.462   c-0.222,0.142-0.507,0.26-0.857,0.354c-0.35,0.094-0.692,0.162-1.028,0.203l-1.099,0.141c-0.659,0.087-1.154,0.225-1.486,0.414   c-0.562,0.315-0.843,0.82-0.843,1.512C82.287,218.196,82.479,218.609,82.863,218.912z"/>
	<path d="M93.481,217.153c0.055,0.606,0.209,1.071,0.464,1.394c0.468,0.586,1.279,0.879,2.434,0.879   c0.688,0,1.292-0.146,1.815-0.439s0.784-0.746,0.784-1.359c0-0.465-0.209-0.818-0.626-1.061c-0.267-0.148-0.794-0.32-1.581-0.516   l-1.468-0.363c-0.938-0.229-1.629-0.485-2.074-0.768c-0.794-0.492-1.191-1.172-1.191-2.041c0-1.023,0.374-1.852,1.121-2.485   c0.748-0.633,1.752-0.949,3.016-0.949c1.652,0,2.843,0.478,3.573,1.435c0.457,0.606,0.679,1.259,0.666,1.96h-1.717   c-0.035-0.409-0.183-0.78-0.445-1.115c-0.427-0.476-1.169-0.713-2.224-0.713c-0.703,0-1.236,0.131-1.598,0.393   c-0.362,0.262-0.543,0.607-0.543,1.037c0,0.47,0.238,0.846,0.713,1.127c0.274,0.168,0.679,0.316,1.215,0.444l1.225,0.293   c1.332,0.316,2.224,0.623,2.677,0.919c0.707,0.465,1.061,1.195,1.061,2.192c0,0.963-0.37,1.795-1.11,2.495   c-0.74,0.701-1.867,1.051-3.38,1.051c-1.63,0-2.784-0.365-3.462-1.096c-0.679-0.73-1.042-1.635-1.089-2.712h1.744V217.153   L93.481,217.153z"/>
	<path d="M109.429,210.025c0.716,0.36,1.262,0.827,1.637,1.399c0.361,0.545,0.603,1.182,0.723,1.91   c0.107,0.499,0.161,1.293,0.161,2.384h-7.871c0.034,1.101,0.291,1.984,0.772,2.649s1.227,0.998,2.235,0.998   c0.942,0,1.694-0.314,2.256-0.944c0.314-0.365,0.537-0.788,0.667-1.269h1.788c-0.047,0.397-0.204,0.84-0.47,1.329   c-0.266,0.489-0.563,0.887-0.89,1.197c-0.548,0.539-1.227,0.902-2.036,1.091c-0.435,0.108-0.926,0.162-1.474,0.162   c-1.339,0-2.473-0.49-3.404-1.47c-0.93-0.98-1.396-2.353-1.396-4.117c0-1.738,0.469-3.148,1.406-4.233s2.162-1.627,3.675-1.627   C107.973,209.484,108.713,209.665,109.429,210.025z M110.081,214.273c-0.074-0.788-0.244-1.418-0.511-1.889   c-0.494-0.875-1.319-1.313-2.474-1.313c-0.828,0-1.523,0.301-2.084,0.904s-0.858,1.369-0.892,2.298H110.081z"/>
	<path d="M125.801,213.999c0.417-0.054,0.697-0.229,0.839-0.524c0.081-0.162,0.121-0.396,0.121-0.7c0-0.622-0.22-1.073-0.661-1.354   c-0.441-0.281-1.07-0.421-1.891-0.421c-0.948,0-1.62,0.257-2.017,0.771c-0.222,0.285-0.366,0.708-0.434,1.27h-1.697   c0.034-1.337,0.466-2.268,1.297-2.792c0.831-0.523,1.794-0.785,2.891-0.785c1.271,0,2.304,0.242,3.098,0.728   c0.787,0.485,1.18,1.239,1.18,2.263v6.234c0,0.188,0.039,0.34,0.116,0.455c0.078,0.114,0.241,0.171,0.49,0.171   c0.081,0,0.172-0.005,0.273-0.015c0.101-0.01,0.208-0.025,0.323-0.045v1.343c-0.283,0.081-0.499,0.131-0.647,0.152   c-0.148,0.02-0.35,0.03-0.606,0.03c-0.626,0-1.081-0.222-1.364-0.667c-0.148-0.236-0.253-0.569-0.313-1   c-0.37,0.485-0.902,0.906-1.596,1.263c-0.694,0.356-1.458,0.535-2.293,0.535c-1.003,0-1.823-0.305-2.46-0.913   c-0.637-0.609-0.955-1.371-0.955-2.286c0-1.002,0.313-1.779,0.939-2.331c0.626-0.551,1.448-0.891,2.465-1.019L125.801,213.999z    M121.972,218.912c0.384,0.303,0.838,0.454,1.364,0.454c0.64,0,1.26-0.148,1.859-0.444c1.011-0.491,1.516-1.294,1.516-2.411v-1.462   c-0.222,0.142-0.507,0.26-0.857,0.354c-0.35,0.094-0.692,0.162-1.028,0.203l-1.099,0.141c-0.659,0.087-1.154,0.225-1.486,0.414   c-0.562,0.315-0.843,0.82-0.843,1.512C121.396,218.196,121.588,218.609,121.972,218.912z"/>
	<path d="M131.873,206.706h1.839v3.021h1.728v1.485h-1.728v7.062c0,0.377,0.128,0.629,0.384,0.757   c0.142,0.074,0.377,0.111,0.708,0.111c0.087,0,0.182-0.002,0.283-0.007c0.101-0.005,0.219-0.016,0.354-0.034v1.445   c-0.209,0.061-0.426,0.104-0.652,0.131c-0.226,0.027-0.47,0.041-0.732,0.041c-0.849,0-1.424-0.217-1.728-0.652   c-0.304-0.435-0.455-0.999-0.455-1.692v-7.163h-1.465v-1.485h1.465L131.873,206.706L131.873,206.706z"/>
	<path d="M148.805,213.999c0.417-0.054,0.697-0.229,0.839-0.524c0.081-0.162,0.121-0.396,0.121-0.7c0-0.622-0.22-1.073-0.661-1.354   c-0.441-0.281-1.07-0.421-1.891-0.421c-0.948,0-1.62,0.257-2.017,0.771c-0.222,0.285-0.366,0.708-0.434,1.27h-1.697   c0.034-1.337,0.466-2.268,1.297-2.792c0.831-0.523,1.794-0.785,2.891-0.785c1.271,0,2.304,0.242,3.098,0.728   c0.787,0.485,1.18,1.239,1.18,2.263v6.234c0,0.188,0.039,0.34,0.116,0.455c0.078,0.114,0.241,0.171,0.49,0.171   c0.081,0,0.172-0.005,0.273-0.015c0.101-0.01,0.208-0.025,0.323-0.045v1.343c-0.283,0.081-0.499,0.131-0.647,0.152   c-0.148,0.02-0.35,0.03-0.606,0.03c-0.626,0-1.081-0.222-1.364-0.667c-0.148-0.236-0.253-0.569-0.313-1   c-0.37,0.485-0.902,0.906-1.596,1.263c-0.694,0.356-1.458,0.535-2.293,0.535c-1.003,0-1.823-0.305-2.46-0.913   c-0.637-0.609-0.955-1.371-0.955-2.286c0-1.002,0.313-1.779,0.939-2.331c0.626-0.551,1.448-0.891,2.465-1.019L148.805,213.999z    M144.976,218.912c0.384,0.303,0.838,0.454,1.364,0.454c0.64,0,1.26-0.148,1.859-0.444c1.011-0.491,1.516-1.294,1.516-2.411v-1.462   c-0.222,0.142-0.507,0.26-0.857,0.354c-0.35,0.094-0.692,0.162-1.028,0.203l-1.099,0.141c-0.659,0.087-1.154,0.225-1.486,0.414   c-0.562,0.315-0.843,0.82-0.843,1.512C144.4,218.196,144.592,218.609,144.976,218.912z"/>
	<path d="M160.625,206.706h1.839v3.021h1.728v1.485h-1.728v7.062c0,0.377,0.128,0.629,0.384,0.757   c0.142,0.074,0.377,0.111,0.708,0.111c0.087,0,0.182-0.002,0.283-0.007c0.101-0.005,0.219-0.016,0.354-0.034v1.445   c-0.209,0.061-0.426,0.104-0.652,0.131c-0.226,0.027-0.47,0.041-0.732,0.041c-0.849,0-1.424-0.217-1.728-0.652   s-0.455-0.999-0.455-1.692v-7.163h-1.465v-1.485h1.465L160.625,206.706L160.625,206.706z"/>
	<path d="M166.01,205.706h1.849v2.061h-1.849V205.706z M166.01,209.777h1.849v10.77h-1.849V209.777z"/>
	<path d="M170.607,209.727h1.798v1.536c0.431-0.532,0.822-0.919,1.172-1.162c0.6-0.411,1.28-0.616,2.041-0.616   c0.862,0,1.556,0.212,2.081,0.637c0.296,0.242,0.566,0.6,0.809,1.071c0.404-0.579,0.879-1.008,1.424-1.288   c0.545-0.279,1.158-0.419,1.839-0.419c1.455,0,2.445,0.525,2.97,1.576c0.283,0.566,0.424,1.327,0.424,2.283v7.204h-1.889v-7.517   c0-0.721-0.18-1.216-0.541-1.485c-0.36-0.269-0.8-0.404-1.318-0.404c-0.714,0-1.329,0.239-1.844,0.717   c-0.516,0.478-0.773,1.276-0.773,2.394v6.294h-1.849v-7.062c0-0.734-0.087-1.27-0.263-1.606c-0.276-0.505-0.792-0.758-1.545-0.758   c-0.687,0-1.312,0.266-1.875,0.798c-0.563,0.532-0.843,1.495-0.843,2.889v5.739h-1.819L170.607,209.727L170.607,209.727z"/>
	<path d="M194.526,210.025c0.716,0.36,1.262,0.827,1.637,1.399c0.361,0.545,0.603,1.182,0.723,1.91   c0.107,0.499,0.161,1.293,0.161,2.384h-7.871c0.034,1.101,0.291,1.984,0.772,2.649c0.481,0.665,1.227,0.998,2.235,0.998   c0.942,0,1.694-0.314,2.256-0.944c0.314-0.365,0.537-0.788,0.667-1.269h1.788c-0.047,0.397-0.204,0.84-0.47,1.329   c-0.266,0.489-0.563,0.887-0.89,1.197c-0.548,0.539-1.227,0.902-2.036,1.091c-0.435,0.108-0.926,0.162-1.474,0.162   c-1.339,0-2.473-0.49-3.404-1.47c-0.93-0.98-1.396-2.353-1.396-4.117c0-1.738,0.469-3.148,1.406-4.233s2.162-1.627,3.675-1.627   C193.07,209.484,193.81,209.665,194.526,210.025z M195.178,214.273c-0.074-0.788-0.244-1.418-0.511-1.889   c-0.494-0.875-1.319-1.313-2.474-1.313c-0.828,0-1.523,0.301-2.084,0.904s-0.858,1.369-0.892,2.298H195.178z"/>
</g>
<g>
	<rect x="415.073" y="463.109" fill="none" width="297.334" height="27.588"/>
	<path d="M416.597,463.144h2.88l4.271,12.552l4.237-12.552h2.857v14.845h-1.92v-8.763c0-0.303,0.007-0.805,0.021-1.505   c0.013-0.697,0.02-1.451,0.02-2.253l-4.237,12.521h-1.989l-4.277-12.521v0.454c0,0.364,0.01,0.918,0.03,1.662   c0.02,0.744,0.027,1.292,0.027,1.642v8.763h-1.92V463.144L416.597,463.144z"/>
	<path d="M435.46,467.166v7.184c0,0.555,0.085,1.003,0.256,1.354c0.314,0.646,0.902,0.97,1.761,0.97   c1.233,0,2.073-0.562,2.521-1.697c0.243-0.604,0.364-1.438,0.364-2.492v-5.314h1.815v10.82h-1.717l0.02-1.6   c-0.229,0.411-0.519,0.761-0.86,1.041c-0.683,0.565-1.507,0.852-2.479,0.852c-1.513,0-2.544-0.519-3.093-1.546   c-0.297-0.555-0.446-1.29-0.446-2.213v-7.354h1.86L435.46,467.166L435.46,467.166z"/>
	<path d="M445.199,463.144h1.815v14.845h-1.815V463.144z"/>
	<path d="M450.109,464.145h1.839v3.021h1.728v1.485h-1.728v7.062c0,0.378,0.128,0.63,0.384,0.758   c0.142,0.074,0.377,0.111,0.708,0.111c0.087,0,0.182-0.002,0.283-0.007c0.101-0.004,0.219-0.019,0.354-0.033v1.444   c-0.209,0.061-0.426,0.104-0.649,0.131c-0.229,0.024-0.473,0.041-0.732,0.041c-0.849,0-1.424-0.218-1.728-0.651   c-0.306-0.435-0.455-0.999-0.455-1.689v-7.163h-1.468v-1.485h1.468L450.109,464.145L450.109,464.145z"/>
	<path d="M455.494,463.144h1.849v2.062h-1.849V463.144z M455.494,467.216h1.849v10.771h-1.849V467.216z"/>
	<path d="M459.939,467.216h1.775v1.438c0.365-0.492,0.766-0.872,1.195-1.145c0.614-0.401,1.337-0.604,2.168-0.604   c1.229,0,2.271,0.47,3.13,1.407c0.858,0.938,1.286,2.281,1.286,4.025c0,2.357-0.618,4.041-1.855,5.052   c-0.782,0.643-1.694,0.959-2.736,0.959c-0.817,0-1.504-0.178-2.062-0.532c-0.321-0.202-0.687-0.552-1.085-1.04v5.523h-1.816   V467.216L459.939,467.216z M466.781,475.698c0.562-0.711,0.846-1.773,0.846-3.188c0-0.859-0.125-1.604-0.375-2.223   c-0.473-1.192-1.338-1.788-2.595-1.788c-1.267,0-2.129,0.63-2.597,1.889c-0.25,0.677-0.375,1.529-0.375,2.566   c0,0.835,0.125,1.546,0.375,2.132c0.475,1.118,1.339,1.677,2.597,1.677C465.509,476.763,466.217,476.408,466.781,475.698z"/>
	<path d="M471.648,463.144h1.816v14.845h-1.816V463.144z"/>
	<path d="M482.879,467.463c0.716,0.36,1.262,0.827,1.636,1.399c0.362,0.546,0.604,1.182,0.727,1.909   c0.104,0.496,0.16,1.294,0.16,2.385h-7.87c0.031,1.101,0.291,1.981,0.771,2.646c0.48,0.665,1.229,0.998,2.235,0.998   c0.939,0,1.691-0.312,2.255-0.941c0.313-0.365,0.537-0.788,0.668-1.271h1.788c-0.047,0.397-0.203,0.84-0.47,1.328   c-0.269,0.488-0.562,0.888-0.894,1.197c-0.548,0.539-1.227,0.899-2.035,1.092c-0.435,0.107-0.926,0.161-1.474,0.161   c-1.339,0-2.474-0.49-3.403-1.47c-0.931-0.98-1.396-2.354-1.396-4.117c0-1.737,0.468-3.148,1.405-4.233   c0.938-1.084,2.159-1.626,3.675-1.626C481.423,466.923,482.162,467.103,482.879,467.463z M483.529,471.711   c-0.073-0.788-0.243-1.417-0.514-1.889c-0.491-0.876-1.316-1.313-2.475-1.313c-0.828,0-1.521,0.302-2.083,0.904   c-0.562,0.602-0.858,1.369-0.892,2.298H483.529z"/>
	<path d="M493.3,463.094h1.771v5.385c0.396-0.519,0.876-0.911,1.43-1.188c0.555-0.272,1.156-0.409,1.806-0.409   c1.354,0,2.449,0.464,3.291,1.393c0.844,0.926,1.266,2.292,1.266,4.097c0,1.711-0.416,3.132-1.247,4.264   c-0.832,1.131-1.984,1.697-3.459,1.697c-0.824,0-1.521-0.199-2.089-0.597c-0.341-0.235-0.7-0.612-1.086-1.134v1.387H493.3V463.094z    M500.254,475.551c0.49-0.781,0.734-1.812,0.734-3.092c0-1.138-0.244-2.081-0.734-2.829c-0.49-0.747-1.212-1.121-2.164-1.121   c-0.832,0-1.56,0.31-2.185,0.919c-0.625,0.613-0.938,1.624-0.938,3.031c0,1.017,0.129,1.842,0.387,2.476   c0.479,1.191,1.375,1.788,2.688,1.788C499.025,476.723,499.764,476.333,500.254,475.551z"/>
	<path d="M510.759,471.438c0.418-0.054,0.697-0.229,0.839-0.522c0.08-0.162,0.121-0.396,0.121-0.699   c0-0.622-0.221-1.073-0.661-1.354c-0.438-0.28-1.067-0.421-1.89-0.421c-0.948,0-1.62,0.258-2.017,0.771   c-0.225,0.284-0.366,0.707-0.437,1.271h-1.697c0.033-1.34,0.469-2.271,1.299-2.791c0.83-0.523,1.795-0.785,2.892-0.785   c1.271,0,2.304,0.242,3.098,0.728c0.787,0.484,1.184,1.239,1.184,2.266v6.231c0,0.188,0.039,0.34,0.114,0.454   c0.076,0.114,0.24,0.172,0.489,0.172c0.081,0,0.172-0.005,0.272-0.016c0.102-0.01,0.209-0.024,0.321-0.045v1.344   c-0.28,0.08-0.497,0.131-0.646,0.151c-0.148,0.02-0.35,0.027-0.604,0.027c-0.629,0-1.081-0.223-1.363-0.667   c-0.148-0.232-0.253-0.565-0.313-1c-0.37,0.485-0.899,0.906-1.596,1.266c-0.694,0.354-1.459,0.532-2.294,0.532   c-1.004,0-1.823-0.304-2.46-0.91c-0.637-0.608-0.955-1.37-0.955-2.285c0-1.002,0.312-1.779,0.938-2.331   c0.628-0.553,1.446-0.895,2.467-1.021L510.759,471.438z M506.93,476.35c0.387,0.306,0.839,0.454,1.364,0.454   c0.64,0,1.259-0.146,1.858-0.441c1.011-0.491,1.516-1.294,1.516-2.411v-1.462c-0.222,0.142-0.508,0.26-0.857,0.354   c-0.349,0.097-0.689,0.162-1.025,0.202l-1.102,0.143c-0.656,0.089-1.151,0.228-1.483,0.412c-0.562,0.316-0.847,0.82-0.847,1.516   C506.354,475.634,506.546,476.047,506.93,476.35z"/>
	<path d="M517.549,474.591c0.055,0.606,0.209,1.071,0.464,1.396c0.47,0.586,1.278,0.879,2.437,0.879   c0.687,0,1.292-0.146,1.812-0.439c0.522-0.293,0.784-0.746,0.784-1.356c0-0.468-0.209-0.818-0.627-1.062   c-0.267-0.146-0.794-0.32-1.581-0.516l-1.468-0.363c-0.938-0.229-1.63-0.485-2.074-0.768c-0.794-0.492-1.189-1.176-1.189-2.041   c0-1.024,0.373-1.854,1.119-2.485c0.747-0.632,1.754-0.95,3.019-0.95c1.648,0,2.843,0.479,3.573,1.438   c0.455,0.604,0.679,1.26,0.666,1.96h-1.721c-0.035-0.408-0.183-0.78-0.441-1.115c-0.431-0.477-1.169-0.713-2.227-0.713   c-0.704,0-1.233,0.131-1.599,0.393c-0.361,0.265-0.543,0.607-0.543,1.037c0,0.47,0.237,0.845,0.714,1.127   c0.273,0.168,0.68,0.316,1.215,0.443l1.228,0.293c1.331,0.315,2.224,0.623,2.677,0.92c0.707,0.465,1.061,1.195,1.061,2.192   c0,0.963-0.37,1.795-1.106,2.492c-0.74,0.7-1.867,1.054-3.382,1.054c-1.632,0-2.783-0.365-3.465-1.099   c-0.678-0.729-1.041-1.636-1.089-2.713L517.549,474.591L517.549,474.591z"/>
	<path d="M533.497,467.463c0.716,0.36,1.262,0.827,1.636,1.399c0.362,0.546,0.604,1.182,0.727,1.909   c0.104,0.496,0.157,1.294,0.157,2.385h-7.869c0.032,1.101,0.291,1.981,0.771,2.646c0.479,0.665,1.226,0.998,2.235,0.998   c0.939,0,1.69-0.312,2.255-0.941c0.312-0.365,0.537-0.788,0.668-1.271h1.788c-0.047,0.397-0.203,0.84-0.473,1.328   c-0.266,0.488-0.562,0.888-0.891,1.197c-0.548,0.539-1.227,0.899-2.035,1.092c-0.435,0.107-0.926,0.161-1.474,0.161   c-1.339,0-2.475-0.49-3.403-1.47c-0.931-0.98-1.396-2.354-1.396-4.117c0-1.737,0.468-3.148,1.403-4.233   c0.938-1.084,2.161-1.626,3.677-1.626C532.041,466.923,532.78,467.103,533.497,467.463z M534.146,471.711   c-0.072-0.788-0.242-1.417-0.513-1.889c-0.494-0.876-1.316-1.313-2.475-1.313c-0.828,0-1.522,0.302-2.083,0.904   c-0.562,0.603-0.858,1.369-0.895,2.298H534.146z"/>
	<path d="M539.402,474.591c0.055,0.606,0.209,1.071,0.464,1.396c0.467,0.586,1.275,0.879,2.434,0.879   c0.688,0,1.292-0.146,1.814-0.439c0.521-0.293,0.784-0.746,0.784-1.356c0-0.468-0.209-0.818-0.627-1.062   c-0.27-0.146-0.797-0.32-1.581-0.516l-1.471-0.363c-0.938-0.229-1.63-0.485-2.071-0.768c-0.795-0.492-1.191-1.176-1.191-2.041   c0-1.024,0.374-1.854,1.121-2.485s1.753-0.95,3.016-0.95c1.651,0,2.844,0.479,3.573,1.438c0.457,0.604,0.679,1.26,0.666,1.96   h-1.718c-0.035-0.408-0.186-0.78-0.444-1.115c-0.428-0.477-1.169-0.713-2.224-0.713c-0.704,0-1.236,0.131-1.602,0.393   c-0.358,0.265-0.543,0.607-0.543,1.037c0,0.47,0.238,0.845,0.714,1.127c0.274,0.168,0.683,0.316,1.218,0.443l1.225,0.293   c1.331,0.315,2.224,0.623,2.677,0.92c0.707,0.465,1.062,1.195,1.062,2.192c0,0.963-0.37,1.795-1.109,2.492   c-0.74,0.7-1.867,1.054-3.381,1.054c-1.63,0-2.784-0.365-3.463-1.099c-0.678-0.729-1.041-1.636-1.089-2.713L539.402,474.591   L539.402,474.591z"/>
	<path d="M560.215,471.438c0.418-0.054,0.697-0.229,0.839-0.522c0.08-0.162,0.121-0.396,0.121-0.699   c0-0.622-0.221-1.073-0.661-1.354c-0.438-0.28-1.067-0.421-1.89-0.421c-0.948,0-1.62,0.258-2.017,0.771   c-0.225,0.284-0.366,0.707-0.437,1.271h-1.697c0.033-1.34,0.468-2.271,1.296-2.791c0.831-0.523,1.797-0.785,2.895-0.785   c1.271,0,2.304,0.242,3.098,0.728c0.787,0.484,1.184,1.239,1.184,2.266v6.231c0,0.188,0.039,0.34,0.113,0.454   c0.077,0.114,0.241,0.172,0.49,0.172c0.081,0,0.172-0.005,0.272-0.016c0.102-0.01,0.209-0.024,0.32-0.045v1.344   c-0.279,0.08-0.497,0.131-0.646,0.151c-0.148,0.02-0.352,0.027-0.605,0.027c-0.627,0-1.08-0.223-1.361-0.667   c-0.148-0.232-0.253-0.565-0.313-1c-0.37,0.485-0.899,0.906-1.596,1.266c-0.694,0.354-1.459,0.532-2.294,0.532   c-1.004,0-1.823-0.304-2.46-0.91c-0.64-0.608-0.955-1.37-0.955-2.285c0-1.002,0.312-1.779,0.938-2.331   c0.627-0.553,1.448-0.895,2.468-1.021L560.215,471.438z M556.386,476.35c0.384,0.306,0.839,0.454,1.364,0.454   c0.64,0,1.259-0.146,1.858-0.441c1.011-0.491,1.516-1.294,1.516-2.411v-1.462c-0.222,0.142-0.508,0.26-0.857,0.354   c-0.349,0.097-0.689,0.162-1.025,0.202l-1.102,0.143c-0.657,0.089-1.151,0.228-1.483,0.412c-0.562,0.316-0.846,0.82-0.846,1.516   C555.81,475.634,556.002,476.047,556.386,476.35z"/>
	<path d="M566.287,464.145h1.839v3.021h1.728v1.485h-1.728v7.062c0,0.378,0.128,0.63,0.384,0.758   c0.145,0.074,0.377,0.111,0.707,0.111c0.088,0,0.182-0.002,0.283-0.007c0.101-0.004,0.219-0.019,0.354-0.033v1.444   c-0.209,0.061-0.426,0.104-0.648,0.131c-0.229,0.024-0.47,0.041-0.732,0.041c-0.849,0-1.425-0.218-1.728-0.651   c-0.307-0.435-0.455-0.999-0.455-1.689v-7.163h-1.465v-1.485h1.465L566.287,464.145L566.287,464.145z"/>
	<path d="M583.221,471.438c0.418-0.054,0.697-0.229,0.839-0.522c0.08-0.162,0.121-0.396,0.121-0.699   c0-0.622-0.221-1.073-0.661-1.354c-0.438-0.28-1.067-0.421-1.89-0.421c-0.948,0-1.62,0.258-2.017,0.771   c-0.225,0.284-0.366,0.707-0.437,1.271h-1.697c0.033-1.34,0.469-2.271,1.299-2.791c0.831-0.523,1.795-0.785,2.892-0.785   c1.271,0,2.304,0.242,3.098,0.728c0.787,0.484,1.184,1.239,1.184,2.266v6.231c0,0.188,0.039,0.34,0.116,0.454   c0.074,0.114,0.238,0.172,0.487,0.172c0.081,0,0.172-0.005,0.272-0.016c0.102-0.01,0.209-0.024,0.323-0.045v1.344   c-0.282,0.08-0.498,0.131-0.646,0.151c-0.148,0.02-0.35,0.027-0.604,0.027c-0.63,0-1.081-0.223-1.364-0.667   c-0.148-0.232-0.253-0.565-0.313-1c-0.37,0.485-0.899,0.906-1.596,1.266c-0.694,0.354-1.459,0.532-2.294,0.532   c-1.004,0-1.823-0.304-2.46-0.91c-0.637-0.608-0.955-1.37-0.955-2.285c0-1.002,0.312-1.779,0.938-2.331   c0.629-0.553,1.448-0.895,2.469-1.021L583.221,471.438z M579.392,476.35c0.387,0.306,0.842,0.454,1.364,0.454   c0.643,0,1.259-0.146,1.858-0.441c1.011-0.491,1.516-1.294,1.516-2.411v-1.462c-0.222,0.142-0.508,0.26-0.854,0.354   c-0.352,0.097-0.692,0.162-1.028,0.202l-1.1,0.143c-0.658,0.089-1.153,0.228-1.485,0.412c-0.562,0.316-0.844,0.82-0.844,1.516   C578.815,475.634,579.008,476.047,579.392,476.35z"/>
	<path d="M595.042,464.145h1.839v3.021h1.729v1.485h-1.729v7.062c0,0.378,0.128,0.63,0.384,0.758   c0.145,0.074,0.377,0.111,0.707,0.111c0.088,0,0.185-0.002,0.283-0.007c0.101-0.004,0.219-0.019,0.354-0.033v1.444   c-0.209,0.061-0.429,0.104-0.651,0.131c-0.226,0.024-0.47,0.041-0.732,0.041c-0.849,0-1.425-0.218-1.728-0.651   c-0.304-0.435-0.455-0.999-0.455-1.689v-7.163h-1.465v-1.485h1.465L595.042,464.145L595.042,464.145z"/>
	<path d="M600.428,463.144h1.852v2.062h-1.852V463.144z M600.428,467.216h1.852v10.771h-1.852V467.216z"/>
	<path d="M605.024,467.166h1.798v1.535c0.431-0.531,0.818-0.919,1.172-1.161c0.6-0.411,1.28-0.616,2.041-0.616   c0.861,0,1.556,0.212,2.081,0.636c0.297,0.243,0.563,0.603,0.809,1.071c0.404-0.579,0.879-1.009,1.425-1.288   c0.545-0.276,1.158-0.419,1.838-0.419c1.455,0,2.445,0.525,2.974,1.576c0.283,0.565,0.425,1.326,0.425,2.283v7.203h-1.89v-7.52   c0-0.721-0.184-1.216-0.541-1.482c-0.36-0.271-0.803-0.404-1.318-0.404c-0.714,0-1.328,0.239-1.844,0.718   c-0.518,0.479-0.772,1.276-0.772,2.396v6.294h-1.849v-7.062c0-0.73-0.088-1.27-0.263-1.604c-0.276-0.509-0.792-0.761-1.549-0.761   c-0.688,0-1.312,0.269-1.873,0.801c-0.562,0.529-0.845,1.492-0.845,2.89v5.738h-1.815L605.024,467.166L605.024,467.166z"/>
	<path d="M628.943,467.463c0.716,0.36,1.262,0.827,1.636,1.399c0.362,0.546,0.603,1.182,0.724,1.909   c0.106,0.496,0.16,1.294,0.16,2.385h-7.87c0.033,1.101,0.291,1.981,0.772,2.646c0.479,0.665,1.226,0.998,2.232,0.998   c0.942,0,1.693-0.312,2.255-0.941c0.314-0.365,0.537-0.788,0.67-1.271h1.786c-0.047,0.397-0.202,0.84-0.47,1.328   c-0.266,0.488-0.562,0.888-0.891,1.197c-0.548,0.539-1.229,0.899-2.035,1.092c-0.437,0.107-0.926,0.161-1.474,0.161   c-1.342,0-2.477-0.49-3.403-1.47c-0.933-0.98-1.396-2.354-1.396-4.117c0-1.737,0.471-3.148,1.405-4.233   c0.938-1.084,2.162-1.626,3.675-1.626C627.487,466.923,628.227,467.103,628.943,467.463z M629.594,471.711   c-0.072-0.788-0.243-1.417-0.511-1.889c-0.494-0.876-1.319-1.313-2.475-1.313c-0.828,0-1.522,0.302-2.083,0.904   c-0.562,0.603-0.858,1.369-0.895,2.298H629.594z"/>
</g>
<g>
	<rect x="9.953" y="423.249" fill="none" width="31.897" height="49.142"/>
	<path d="M11.603,437.11c-0.771-0.939-1.156-2.083-1.156-3.432h1.899c0.08,0.938,0.256,1.615,0.523,2.041   c0.473,0.763,1.323,1.144,2.557,1.144c0.957,0,1.726-0.256,2.305-0.771c0.579-0.513,0.869-1.173,0.869-1.979   c0-0.997-0.305-1.694-0.914-2.093c-0.609-0.397-1.457-0.598-2.541-0.598c-0.122,0-0.244,0.003-0.369,0.006   c-0.125,0.005-0.251,0.011-0.379,0.018v-1.606c0.188,0.021,0.348,0.033,0.475,0.04c0.129,0.008,0.269,0.012,0.414,0.012   c0.682,0,1.239-0.106,1.68-0.322c0.768-0.377,1.15-1.053,1.15-2.021c0-0.721-0.257-1.273-0.769-1.667   c-0.513-0.391-1.108-0.586-1.788-0.586c-1.213,0-2.051,0.404-2.518,1.214c-0.256,0.443-0.399,1.076-0.435,1.898h-1.799   c0-1.078,0.216-1.994,0.646-2.748c0.741-1.348,2.045-2.021,3.91-2.021c1.477,0,2.617,0.329,3.426,0.984   c0.81,0.657,1.213,1.608,1.213,2.854c0,0.89-0.238,1.607-0.719,2.161c-0.296,0.345-0.68,0.611-1.15,0.81   c0.762,0.209,1.354,0.61,1.783,1.208c0.429,0.596,0.643,1.325,0.643,2.188c0,1.381-0.455,2.506-1.364,3.375   c-0.909,0.868-2.198,1.305-3.868,1.305C13.615,438.52,12.375,438.049,11.603,437.11z"/>
	<path d="M23.176,427.598c0.375-0.062,0.656-0.271,0.852-0.626c0.195-0.355,0.291-0.77,0.291-1.231c0-0.047-0.002-0.089-0.005-0.126   c-0.004-0.037-0.013-0.079-0.024-0.126h-1.11v-2.203h2.161v2.031c0,0.86-0.18,1.595-0.535,2.195   c-0.355,0.604-0.898,0.947-1.626,1.034L23.176,427.598L23.176,427.598z"/>
</g>
<g>
	<rect x="234.848" y="180.731" fill="none" width="31.897" height="49.142"/>
	<path d="M236.498,194.592c-0.771-0.939-1.156-2.083-1.156-3.431h1.899c0.08,0.938,0.256,1.615,0.523,2.041   c0.473,0.762,1.323,1.143,2.557,1.143c0.957,0,1.726-0.256,2.305-0.77c0.579-0.513,0.869-1.173,0.869-1.979   c0-0.997-0.305-1.694-0.914-2.092s-1.457-0.598-2.541-0.598c-0.122,0-0.244,0.003-0.369,0.006c-0.125,0.005-0.251,0.01-0.379,0.017   v-1.606c0.188,0.021,0.348,0.033,0.475,0.04c0.129,0.008,0.269,0.012,0.414,0.012c0.682,0,1.239-0.107,1.68-0.323   c0.768-0.377,1.15-1.052,1.15-2.021c0-0.721-0.257-1.274-0.769-1.667c-0.513-0.391-1.108-0.586-1.788-0.586   c-1.213,0-2.051,0.404-2.518,1.214c-0.256,0.443-0.399,1.076-0.435,1.898h-1.799c0-1.078,0.216-1.994,0.646-2.748   c0.741-1.348,2.045-2.021,3.91-2.021c1.477,0,2.617,0.329,3.426,0.984c0.81,0.657,1.213,1.608,1.213,2.854   c0,0.889-0.238,1.607-0.719,2.161c-0.296,0.344-0.68,0.611-1.15,0.809c0.762,0.209,1.354,0.611,1.783,1.208   c0.429,0.596,0.643,1.325,0.643,2.188c0,1.381-0.455,2.506-1.364,3.375c-0.909,0.868-2.198,1.304-3.868,1.304   C238.51,196.001,237.27,195.531,236.498,194.592z"/>
	<path d="M248.071,185.08c0.375-0.062,0.656-0.271,0.852-0.626c0.195-0.356,0.291-0.77,0.291-1.232c0-0.047-0.002-0.089-0.005-0.126   c-0.004-0.037-0.013-0.079-0.024-0.126h-1.11v-2.203h2.161v2.031c0,0.861-0.18,1.595-0.535,2.196   c-0.355,0.604-0.898,0.947-1.626,1.034L248.071,185.08L248.071,185.08z"/>
</g>
<g>
	<rect x="13.646" y="181.136" fill="none" width="31.897" height="49.141"/>
	<path d="M16.201,192.325c0.121,1.035,0.604,1.755,1.445,2.149c0.431,0.202,0.929,0.304,1.495,0.304   c1.078,0,1.875-0.344,2.395-1.028c0.521-0.688,0.778-1.448,0.778-2.283c0-1.011-0.308-1.792-0.925-2.345   c-0.615-0.553-1.354-0.828-2.217-0.828c-0.628,0-1.164,0.121-1.611,0.362c-0.448,0.242-0.83,0.579-1.147,1.012l-1.574-0.091   l1.102-7.79h7.516v1.759h-6.151l-0.616,4.021c0.337-0.256,0.657-0.445,0.96-0.575c0.539-0.223,1.162-0.332,1.869-0.332   c1.326,0,2.451,0.428,3.373,1.281c0.924,0.855,1.385,1.939,1.385,3.254c0,1.366-0.424,2.572-1.268,3.616   c-0.847,1.044-2.194,1.565-4.048,1.565c-1.179,0-2.221-0.331-3.127-0.995c-0.905-0.663-1.411-1.682-1.521-3.057L16.201,192.325   L16.201,192.325z"/>
	<path d="M26.87,185.484c0.374-0.061,0.658-0.27,0.853-0.626c0.193-0.355,0.291-0.769,0.291-1.231c0-0.047-0.002-0.089-0.004-0.126   c-0.005-0.037-0.014-0.079-0.025-0.126h-1.111v-2.203h2.162v2.031c0,0.86-0.178,1.595-0.535,2.195   c-0.356,0.604-0.897,0.948-1.627,1.035v-0.948L26.87,185.484L26.87,185.484z"/>
</g>
<g>
	<rect x="91.09" y="423.249" fill="none" width="31.897" height="49.141"/>
	<path d="M93.646,434.438c0.121,1.035,0.604,1.756,1.445,2.149c0.431,0.202,0.929,0.304,1.495,0.304   c1.078,0,1.875-0.344,2.395-1.027c0.521-0.688,0.778-1.448,0.778-2.283c0-1.011-0.308-1.792-0.925-2.345   c-0.615-0.554-1.354-0.828-2.217-0.828c-0.628,0-1.164,0.121-1.611,0.361c-0.448,0.242-0.83,0.579-1.147,1.013l-1.574-0.092   l1.102-7.789h7.516v1.759H94.75l-0.616,4.021c0.337-0.256,0.657-0.444,0.96-0.575c0.539-0.223,1.162-0.332,1.869-0.332   c1.326,0,2.451,0.429,3.373,1.281c0.924,0.855,1.385,1.939,1.385,3.254c0,1.366-0.424,2.572-1.268,3.616   c-0.847,1.044-2.194,1.565-4.048,1.565c-1.179,0-2.221-0.331-3.127-0.995c-0.905-0.663-1.411-1.683-1.521-3.058L93.646,434.438   L93.646,434.438z"/>
	<path d="M104.314,427.598c0.374-0.061,0.658-0.27,0.853-0.626c0.193-0.354,0.291-0.769,0.291-1.23c0-0.047-0.002-0.089-0.004-0.126   c-0.005-0.037-0.014-0.079-0.025-0.126h-1.111v-2.203h2.162v2.031c0,0.859-0.178,1.595-0.535,2.194   c-0.356,0.604-0.897,0.948-1.627,1.035v-0.948L104.314,427.598L104.314,427.598z"/>
</g>
</svg>